<svg width="234" height="224" viewBox="0 0 234 224" fill="none" xmlns="http://www.w3.org/2000/svg">
<g clip-path="url(#clip0_50_1078)">
<path d="M233.403 103.633C236.55 75.9058 227.192 48.0603 207.534 28.2729C197.872 18.5465 184.652 9.37621 167.092 4.94811C117.843 -7.47116 85.9267 3.90802 69.9713 34.1221C54.0158 64.3464 8.22669 59.1357 0.945682 111.238C-6.34047 163.34 29.0413 220.648 89.0479 223.773C149.055 226.899 141.331 196.989 174.158 184.157C199.261 174.343 228.703 145.015 233.403 103.633Z" fill="#92E3A9"/>
<path opacity="0.7" d="M233.403 103.633C236.55 75.9058 227.192 48.0603 207.534 28.2729C197.872 18.5465 184.652 9.37621 167.092 4.94811C117.843 -7.47116 85.9267 3.90802 69.9713 34.1221C54.0158 64.3464 8.22669 59.1357 0.945682 111.238C-6.34047 163.34 29.0413 220.648 89.0479 223.773C149.055 226.899 141.331 196.989 174.158 184.157C199.261 174.343 228.703 145.015 233.403 103.633Z" fill="white"/>
<path d="M3.08984 192.617H222.991" stroke="#263238" stroke-linecap="round" stroke-linejoin="round"/>
<path d="M84.1992 192.308L105.019 116.042C107.503 106.939 115.694 100.569 125.119 100.42L159.369 99.869C172.821 99.6528 183.069 111.887 180.513 125.114L167.473 192.607L84.2044 192.303L84.1992 192.308Z" fill="#263238" stroke="#263238" stroke-linecap="round" stroke-linejoin="round"/>
<path d="M76.4868 177.649L78.955 173.592L74.0547 172.995C74.0547 172.995 74.4403 176.264 76.4868 177.649Z" fill="#263238" stroke="#263238" stroke-linecap="round" stroke-linejoin="round"/>
<path d="M80.2097 176.048C80.2097 176.048 82.3025 174.673 83.0789 170.183C83.8554 165.693 83.7371 159.468 83.0172 158.814C82.3025 158.155 81.922 157.496 81.922 157.496C81.922 157.496 79.4333 160.132 79.2533 161.09C79.0733 162.048 77.104 170.605 80.2097 176.053V176.048Z" fill="#263238" stroke="#263238" stroke-linecap="round" stroke-linejoin="round"/>
<path d="M79.9676 159.89C79.9676 159.89 78.8929 162.882 78.6512 167.073C78.4147 171.264 80.2041 176.048 80.2041 176.048L75.5403 174.73C75.5403 174.73 74.8822 170.78 76.3168 167.31C77.7514 163.84 79.9624 159.89 79.9624 159.89H79.9676Z" fill="white" stroke="#263238" stroke-linecap="round" stroke-linejoin="round"/>
<path d="M117.735 119.775C117.735 119.775 105.508 123.111 101.312 123.111C97.1162 123.111 94.0259 123.729 92.7918 124.594C91.5577 125.459 73.4015 147.965 70.8099 150.566C68.2184 153.161 62.5365 157.615 60.8088 163.428C59.0811 169.241 63.6472 173.319 67.2311 174.807C70.8151 176.29 76.4918 177.649 76.4918 177.649C76.4918 177.649 74.2705 173.442 76.1216 167.758C77.9727 162.068 81.9268 157.491 81.9268 157.491L95.1417 155.267L91.6811 175.301L86.4929 192.617H163.679C163.679 192.617 167.011 183.22 168.373 171.47C169.731 159.72 170.348 135.608 170.348 132.513C170.348 129.419 170.718 127.442 167.88 126.577C165.041 125.712 156.022 124.105 151.95 122.123C147.872 120.146 142.741 114.281 140.303 113.751C137.871 113.22 129.593 116.31 126.508 117.674C123.422 119.033 117.741 119.775 117.741 119.775H117.735Z" fill="#999999" stroke="#263238" stroke-linecap="round" stroke-linejoin="round"/>
<path d="M75.1243 152.45L73.957 151.58" stroke="#263238" stroke-linecap="round" stroke-linejoin="round"/>
<path d="M81.922 157.496L76.7646 153.665" stroke="#263238" stroke-linecap="round" stroke-linejoin="round"/>
<path d="M124.281 166.275C131.69 161.203 140.704 148.836 140.704 148.836L135.516 143.764L144.159 141.787C144.159 141.787 145.764 132.019 144.53 122.246C144.201 119.646 143.918 117.551 143.676 115.867C142.329 114.77 141.146 113.936 140.298 113.751C137.866 113.22 129.587 116.31 126.502 117.674C124.101 118.73 120.131 119.414 118.486 119.667L108.716 135.855L115.385 139.32L108.839 141.915L112.3 168.01L106.001 174.318C106.001 174.318 116.871 171.352 124.281 166.28V166.275Z" fill="#ABABAB" stroke="#263238" stroke-linecap="round" stroke-linejoin="round"/>
<path d="M121.196 121.505C121.196 121.505 119.099 129.542 117.242 142.405C115.391 155.267 116.132 163.551 116.132 163.551C116.132 163.551 133.424 137.086 136.879 127.689C140.335 118.292 140.299 113.751 140.299 113.751C140.299 113.751 127.49 121.629 121.191 121.505H121.196Z" fill="white" stroke="#263238" stroke-linecap="round" stroke-linejoin="round"/>
<path d="M126.626 126.082L120.327 131.154L123.042 138.45L116.317 150.684C115.695 158.711 116.126 163.556 116.126 163.556C116.126 163.556 120.626 156.672 125.49 148.676L124.647 138.697L128.971 133.873L126.626 126.082Z" fill="#263238" stroke="#263238" stroke-linecap="round" stroke-linejoin="round"/>
<path d="M140.299 113.751C140.299 113.751 127.49 121.629 121.191 121.505C121.191 121.505 119.927 126.345 118.497 134.516L125.516 128.801L130.082 140.958C133.105 135.721 135.743 130.778 136.88 127.689C140.34 118.292 140.299 113.751 140.299 113.751Z" fill="white" stroke="#263238" stroke-linecap="round" stroke-linejoin="round"/>
<path d="M112.84 89.4939C112.84 89.4939 112.629 98.9062 112.629 103.921C112.629 108.936 112.105 111.346 112.732 112.494C113.359 113.642 115.133 117.092 115.55 118.246C115.966 119.394 116.074 120.022 116.907 121.278C117.74 122.535 121.921 123.472 121.921 123.472C121.921 123.472 123.175 129.223 124.636 129.326C126.096 129.429 134.241 124.414 136.123 121.695C138.005 118.977 139.882 115.424 140.298 113.751C140.715 112.077 140.612 111.763 140.823 110.198C141.033 108.627 141.45 107.062 141.45 107.062C141.45 107.062 146.15 104.555 146.566 101.625C146.983 98.6951 145.522 96.5016 145.522 96.5016L143.954 94.0971L138.421 90.5443C138.421 90.5443 137.48 88.8709 139.254 84.7929C141.028 80.7149 139.984 77.4763 137.269 76.9511C134.554 76.4259 120.877 76.4259 117.324 80.612C113.776 84.7929 112.835 89.4991 112.835 89.4991L112.84 89.4939Z" fill="white" stroke="#263238" stroke-linecap="round" stroke-linejoin="round"/>
<path d="M139.254 110.198C139.254 110.198 138.211 113.859 137.064 115.738C135.917 117.623 127.875 123.58 126.934 123.791C125.993 124.002 121.921 123.477 121.921 123.477C121.921 123.477 123.176 129.228 124.636 129.331C124.806 129.342 125.063 129.285 125.387 129.172C128.533 126.165 134.683 120.243 136.015 118.627C137.83 116.428 139.254 110.198 139.254 110.198Z" fill="#263238" stroke="#263238" stroke-linecap="round" stroke-linejoin="round"/>
<path d="M119.416 95.6624C119.416 95.6624 119.833 97.1247 119.416 101.1C119 105.075 116.804 108.524 117.329 109.153C117.853 109.781 118.789 110.512 119.941 110.512C121.092 110.512 122.239 109.781 122.239 109.781" stroke="#263238" stroke-linecap="round" stroke-linejoin="round"/>
<path d="M118.476 114.276L117.849 112.185C117.849 112.185 120.461 113.231 123.798 112.499C127.14 111.768 127.557 109.256 127.557 109.256" stroke="#263238" stroke-linecap="round" stroke-linejoin="round"/>
<path d="M126.204 100.26C126.204 100.26 128.292 101.831 130.796 100.574" stroke="#263238" stroke-linecap="round" stroke-linejoin="round"/>
<path d="M114.933 98.6591C114.933 98.6591 116.393 100.121 118.275 99.4932" stroke="#263238" stroke-linecap="round" stroke-linejoin="round"/>
<path d="M129.119 101.424C129.119 101.661 128.718 101.851 128.219 101.851C127.72 101.851 127.319 101.661 127.319 101.424C127.319 101.187 127.72 100.997 128.219 100.997C128.718 100.997 129.119 101.187 129.119 101.424Z" fill="#263238"/>
<path d="M117.283 100.08C117.242 100.312 116.81 100.43 116.321 100.338C115.833 100.25 115.473 99.9875 115.514 99.7558C115.555 99.5241 115.987 99.4056 116.475 99.4983C116.964 99.5858 117.324 99.8484 117.283 100.08Z" fill="#263238"/>
<path d="M124.6 94.6686C124.6 94.6686 129.942 93.7006 131.613 96.2133" stroke="#263238" stroke-linecap="round" stroke-linejoin="round"/>
<path d="M118.553 94.4112C118.553 94.4112 115.401 92.3516 113.92 94.4781" stroke="#263238" stroke-linecap="round" stroke-linejoin="round"/>
<path d="M138.524 73.8102C138.524 73.8102 136.436 68.79 124.322 68.8981C112.208 69.0011 107.302 75.3806 107.719 77.0541C108.135 78.7275 113.046 79.3556 112.208 80.5039C111.375 81.6521 108.865 83.8507 109.493 86.0441C110.12 88.2376 112.835 89.4939 112.835 89.4939C112.835 89.4939 114.295 83.6396 121.191 83.2225C128.081 82.8054 130.482 83.5366 132.678 82.1773C134.868 80.8179 135.603 80.2927 135.603 80.2927C135.603 80.2927 131.531 86.2501 132.056 89.1798C132.58 92.1096 134.981 93.6749 135.814 95.3483C136.647 97.0217 136.025 99.2151 136.755 100.054C137.485 100.889 138.843 100.683 139.367 99.4263C139.892 98.1699 141.141 95.8735 143.44 96.7076L145.738 97.5417C145.738 97.5417 151.168 86.5642 150.33 81.1269C149.497 75.6896 142.915 71.1946 138.529 73.8102H138.524Z" fill="#263238" stroke="#263238" stroke-linecap="round" stroke-linejoin="round"/>
<path d="M91.0842 146.426L94.7299 145.051C94.7299 145.051 96.2262 143.434 97.1209 143.913C98.0156 144.392 97.8356 146.127 97.0592 147.147C96.2828 148.166 94.1283 149.181 94.1283 149.181L91.0791 146.426H91.0842Z" fill="white" stroke="#263238" stroke-linecap="round" stroke-linejoin="round"/>
<path d="M95.948 138.76L93.9961 138.004L89.9404 148.507L91.8924 149.263L95.948 138.76Z" fill="white" stroke="#263238" stroke-linecap="round" stroke-linejoin="round"/>
<path opacity="0.47" d="M98.6531 138.939C103.424 138.939 107.292 135.767 107.292 131.854C107.292 127.941 103.424 124.769 98.6531 124.769C93.8822 124.769 90.0146 127.941 90.0146 131.854C90.0146 135.767 93.8822 138.939 98.6531 138.939Z" fill="white"/>
<path d="M99.6256 123.05C94.3448 122.406 89.6297 125.454 89.0897 129.862C88.555 134.269 92.396 138.363 97.6768 139.011C102.958 139.655 107.673 136.607 108.213 132.199C108.747 127.792 104.906 123.698 99.6256 123.05ZM106.305 131.962C105.873 135.49 102.099 137.93 97.8774 137.41C93.6507 136.895 90.5758 133.615 91.0026 130.088C91.4345 126.561 95.2087 124.121 99.4302 124.641C103.657 125.156 106.732 128.435 106.305 131.962Z" fill="white" stroke="#263238" stroke-linecap="round" stroke-linejoin="round"/>
<path d="M99.4401 124.038C94.1593 123.395 89.4441 126.443 88.9042 130.85C88.3694 135.258 92.2105 139.351 97.4913 140C102.772 140.644 107.487 137.595 108.027 133.188C108.562 128.78 104.721 124.687 99.4401 124.038ZM106.119 132.951C105.688 136.478 101.913 138.919 97.6918 138.399C93.4651 137.884 90.3902 134.604 90.817 131.077C91.2438 127.55 95.0231 125.109 99.2447 125.629C103.471 126.144 106.546 129.424 106.119 132.951Z" fill="white" stroke="#263238" stroke-linecap="round" stroke-linejoin="round"/>
<path d="M79.8494 160.307L83.4951 150.313C83.4951 150.313 86.7808 143.609 87.5572 143.609C88.3337 143.609 93.2339 146.065 93.6556 146.302C94.0772 146.539 95.8666 152.167 95.8666 152.167C95.8666 152.167 96.1649 152.584 95.6867 153.305C95.2085 154.021 94.612 154.499 94.612 154.499C94.612 154.499 94.2521 156.775 93.8973 157.254C93.5373 157.733 92.9409 158.032 92.9409 158.032C92.9409 158.032 92.5244 158.928 91.8662 159.705C91.208 160.483 90.8481 160.9 90.8481 160.9C90.8481 160.9 90.3082 161.919 89.5317 162.753C88.7553 163.587 86.6625 163.17 86.6625 163.17C86.6625 163.17 86.3643 165.565 85.5262 166.162C84.688 166.759 81.1041 168.196 78.6514 167.058C78.6514 167.058 79.1296 162.151 79.8443 160.297L79.8494 160.307Z" fill="white" stroke="#263238" stroke-linecap="round" stroke-linejoin="round"/>
<path d="M94.6117 154.505C94.6117 154.505 92.6989 150.916 92.1024 150.138C91.506 149.361 87.2021 147.626 87.2021 147.626" stroke="#263238" stroke-linecap="round" stroke-linejoin="round"/>
<path d="M92.941 158.032C92.941 158.032 89.6553 154.922 88.9972 154.443C88.339 153.964 84.6934 152.049 84.6934 152.049" stroke="#263238" stroke-linecap="round" stroke-linejoin="round"/>
<path d="M90.8478 160.905L89.5932 159.113L83.0166 157.079" stroke="#263238" stroke-linecap="round" stroke-linejoin="round"/>
<path d="M86.6621 163.181V162.465C86.6621 161.924 87.202 161.868 87.7368 161.868" stroke="#263238" stroke-linecap="round" stroke-linejoin="round"/>
<path d="M100.617 142.945L98.9719 140.654L96.041 140.726L97.2597 142.873L100.617 142.945Z" fill="#92E3A9" stroke="#263238" stroke-linecap="round" stroke-linejoin="round"/>
<path d="M119.956 160.338C119.956 160.338 114.768 153.166 114.151 152.548C113.534 151.93 111.065 146.858 110.69 145.623C110.32 144.387 108.962 144.016 108.345 144.016C107.728 144.016 101.676 142.904 101.676 142.904C101.676 142.904 98.3443 142.904 97.7221 142.657C97.1051 142.41 96.2412 143.645 96.3646 144.263C96.3646 144.263 95.7476 145.993 96.2412 147.476C96.7348 148.959 97.8455 149.948 97.8455 149.948C97.8455 149.948 96.2412 153.037 96.9817 154.278C97.7221 155.519 98.9562 157.367 98.9562 157.367C98.9562 157.367 97.7221 159.592 98.8328 160.833C99.9434 162.074 102.664 163.798 104.761 164.916C106.859 166.028 110.073 167.511 111.184 167.758C112.294 168.005 118.717 168.376 118.717 168.376L119.951 160.338H119.956Z" fill="white" stroke="#263238" stroke-linecap="round" stroke-linejoin="round"/>
<path d="M99.6865 142.873C99.6865 142.873 107.112 145.499 108.474 146.488" stroke="#263238" stroke-linecap="round" stroke-linejoin="round"/>
<path d="M96.3701 144.263L100.201 147.605C100.201 147.605 105.513 152.059 107.61 152.8" stroke="#263238" stroke-linecap="round" stroke-linejoin="round"/>
<path d="M97.8506 149.948C97.8506 149.948 101.805 155.143 104.026 156.379" stroke="#263238" stroke-linecap="round" stroke-linejoin="round"/>
<path d="M98.9619 157.367C98.9619 157.367 102.17 159.715 104.397 160.704" stroke="#263238" stroke-linecap="round" stroke-linejoin="round"/>
<path d="M126.379 162.192L119.216 159.35L116.131 174.683L124.774 177.526L126.379 162.192Z" fill="white" stroke="#263238" stroke-linecap="round" stroke-linejoin="round"/>
<path d="M147.995 145.375L146.761 168.005L125.273 161.203L122.558 179.014C122.558 179.014 140.344 186.928 147.136 189.651C153.929 192.375 161.708 194.105 162.696 193.364C163.683 192.622 165.781 187.921 167.761 178.03C169.735 168.139 169.858 134.13 170.352 132.519C170.846 130.912 170.229 128.559 169.365 127.818C168.501 127.076 157.878 129.795 157.878 129.795" fill="#999999"/>
<path d="M147.995 145.375L146.761 168.005L125.273 161.203L122.558 179.014C122.558 179.014 140.344 186.928 147.136 189.651C153.929 192.375 161.708 194.105 162.696 193.364C163.683 192.622 165.781 187.921 167.761 178.03C169.735 168.139 169.858 134.13 170.352 132.519C170.846 130.912 170.229 128.559 169.365 127.818C168.501 127.076 157.878 129.795 157.878 129.795" stroke="#263238" stroke-linecap="round" stroke-linejoin="round"/>
<path d="M161.744 134.388C162.294 134.295 162.855 134.243 163.431 134.243" stroke="#263238" stroke-linecap="round" stroke-linejoin="round"/>
<path d="M148.982 145.005C148.982 145.005 153.003 137.853 159.04 135.211" stroke="#263238" stroke-linecap="round" stroke-linejoin="round"/>
<path d="M146.756 168.005C146.756 168.005 156.263 170.353 157.626 171.094C158.989 171.836 161.086 176.043 161.333 179.75" stroke="#263238" stroke-linecap="round" stroke-linejoin="round"/>
<path d="M163.832 176.501C163.94 177.098 164.012 177.768 164.043 178.514" stroke="#263238" stroke-linecap="round" stroke-linejoin="round"/>
<path d="M160.958 171.718C160.958 171.718 162.172 172.14 163.082 174.055" stroke="#263238" stroke-linecap="round" stroke-linejoin="round"/>
<path d="M28.8311 198.492L27.8232 200.217L73.4478 207.544L124.955 217.888L148.772 197.632L145.476 195.475L119.936 210.85L69.4319 198.925L28.8311 198.492Z" fill="white" stroke="#263238" stroke-linecap="round" stroke-linejoin="round"/>
<path d="M73.4482 203.811L100.279 189.734C100.279 189.734 105.159 188.009 112.332 188.153C119.505 188.297 130.555 192.463 136.72 193.899C142.89 195.336 145.472 195.48 145.472 195.48L121.51 214.155C121.51 214.155 100.994 210.561 94.1086 207.688C87.2235 204.815 77.0373 201.942 73.4482 203.811Z" fill="#EBEBEB" stroke="#263238" stroke-linecap="round" stroke-linejoin="round"/>
<path d="M73.448 203.811C73.448 203.811 69.4322 200.649 65.6991 200.361C61.9712 200.073 57.6622 200.938 51.641 201.365C45.6146 201.798 28.8262 198.492 28.8262 198.492L65.5551 190.017C65.5551 190.017 68.882 190.841 79.5567 188.019C86.4469 186.196 98.4122 190.733 98.4122 190.733L73.448 203.806V203.811Z" fill="#EBEBEB" stroke="#263238" stroke-linecap="round" stroke-linejoin="round"/>
<path d="M72.1418 205.726C72.1418 205.726 66.6296 202.869 63.7758 203.059C60.9221 203.25 56.7417 202.678 54.0781 202.869" stroke="#263238" stroke-linecap="round" stroke-linejoin="round"/>
<path d="M74.8057 206.298C74.8057 206.298 78.801 205.536 82.2204 206.298C85.6449 207.06 88.113 208.394 94.0109 209.537" stroke="#263238" stroke-linecap="round" stroke-linejoin="round"/>
<path d="M123.675 215.437L143.641 199.254" stroke="#263238" stroke-linecap="round" stroke-linejoin="round"/>
<path d="M141.738 202.493L125.196 216.199" stroke="#263238" stroke-linecap="round" stroke-linejoin="round"/>
<path d="M114.563 206.02L109.375 209.022L118.929 211.21L124.112 208.203L114.563 206.02Z" fill="white"/>
<path d="M114.985 206.519L110.805 208.944L118.502 210.705L122.683 208.285L114.985 206.519Z" fill="#92E3A9"/>
<path d="M128.508 195.094L123.325 198.096L132.874 200.284L138.057 197.277L128.508 195.094Z" fill="white"/>
<path d="M128.93 195.598L124.755 198.018L132.452 199.779L136.628 197.359L128.93 195.598Z" fill="#92E3A9"/>
<path d="M124.744 200.562L119.314 204.14L125.603 205.855L131.604 202.138L124.744 200.562Z" fill="white"/>
<path d="M124.899 201.123L120.626 203.94L125.573 205.294L130.298 202.364L124.899 201.123Z" fill="#92E3A9"/>
<path d="M105.061 203.265L99.6309 206.844L105.919 208.558L111.92 204.841L105.061 203.265Z" fill="white"/>
<path d="M105.215 203.826L100.942 206.643L105.889 207.997L110.614 205.067L105.215 203.826Z" fill="#92E3A9"/>
<path d="M96.5715 200.109L90.1543 203.687L95.9647 205.402L102.994 201.684L96.5715 200.109Z" fill="white"/>
<path d="M96.566 200.675L91.5166 203.492L96.0878 204.841L101.626 201.911L96.566 200.675Z" fill="#92E3A9"/>
<path d="M115.072 198.085L109.642 201.659L115.93 203.378L121.931 199.656L115.072 198.085Z" fill="white"/>
<path d="M115.226 198.647L110.953 201.463L115.9 202.812L120.625 199.887L115.226 198.647Z" fill="#92E3A9"/>
<path d="M71.144 194.821L65.6318 196.953L71.2468 197.864L77.3092 195.64L71.144 194.821Z" fill="white"/>
<path d="M71.2109 195.145L66.8711 196.824L71.2932 197.54L76.0649 195.789L71.2109 195.145Z" fill="#92E3A9"/>
</g>
<defs>
<clipPath id="clip0_50_1078">
<rect width="234" height="224" rx="8" fill="white"/>
</clipPath>
</defs>
</svg>
