<svg width="247" height="238" viewBox="0 0 247 238" fill="none" xmlns="http://www.w3.org/2000/svg">
<g clip-path="url(#clip0_50_1174)">
<path d="M234.008 57.7093C233.197 56.327 232.339 54.9757 231.446 53.65C219.542 35.9996 199.058 23.9295 178.907 18.4725C170.085 16.0832 160.97 14.8294 151.839 14.5211C91.957 12.4914 68.1038 59.7132 48.3126 71.9015C28.5162 84.0898 -1.93574 104.911 0.097816 148.582C2.12624 192.253 33.5899 233.386 94.4938 235.924C155.393 238.462 159.455 211.044 193.455 200.885C215.958 194.164 231.944 171.463 239.775 150.483C250.446 121.893 249.943 84.7526 234.013 57.7093H234.008Z" fill="#92E3A9"/>
<path opacity="0.7" d="M234.008 57.7093C233.197 56.327 232.339 54.9757 231.446 53.65C219.542 35.9996 199.058 23.9295 178.907 18.4725C170.085 16.0832 160.97 14.8294 151.839 14.5211C91.957 12.4914 68.1038 59.7132 48.3126 71.9015C28.5162 84.0898 -1.93574 104.911 0.097816 148.582C2.12624 192.253 33.5899 233.386 94.4938 235.924C155.393 238.462 159.455 211.044 193.455 200.885C215.958 194.164 231.944 171.463 239.775 150.483C250.446 121.893 249.943 84.7526 234.013 57.7093H234.008Z" fill="white"/>
<g opacity="0.3">
<path d="M9.81836 219.923V86.325H236.796V219.923" stroke="black" stroke-miterlimit="10"/>
<path d="M225.498 89.9219H201.296V103.282H225.498V89.9219Z" stroke="black" stroke-miterlimit="10"/>
<path d="M189.464 89.9219H165.262V103.282H189.464V89.9219Z" stroke="black" stroke-miterlimit="10"/>
<path d="M153.425 89.9219H129.223V103.282H153.425V89.9219Z" stroke="black" stroke-miterlimit="10"/>
<path d="M117.392 89.9219H93.1895V103.282H117.392V89.9219Z" stroke="black" stroke-miterlimit="10"/>
<path d="M81.3577 89.9219H57.1553V103.282H81.3577V89.9219Z" stroke="black" stroke-miterlimit="10"/>
<path d="M45.3186 89.9219H21.1162V103.282H45.3186V89.9219Z" stroke="black" stroke-miterlimit="10"/>
</g>
<path d="M214.848 19.7571C213.539 18.4006 211.274 17.1519 207.34 17.0543C198.498 16.8385 200.87 23.0971 198.498 24.6077C196.125 26.1184 195.478 23.7445 193.106 25.2552C190.733 26.7659 191.811 29.7872 189.87 30.2189C187.929 30.6505 185.341 28.2766 182.969 29.7872C180.596 31.2979 180.596 32.5928 179.518 32.5928C178.439 32.5928 176.283 31.7296 174.988 32.5928C173.694 33.4561 172.185 34.5351 172.185 34.5351H195.339" stroke="#263238" stroke-linecap="round" stroke-linejoin="round"/>
<path d="M217.288 23.6212C217.077 23.5184 216.851 23.4156 216.62 23.3129C216.62 23.3129 216.548 22.2698 215.824 21.0366" stroke="#263238" stroke-linecap="round" stroke-linejoin="round"/>
<path d="M198.312 34.5351H226.751C226.751 34.5351 227.399 32.5928 225.026 31.2979C222.654 30.003 221.575 31.0821 220.712 30.003C219.942 29.0422 222.428 26.7145 218.412 24.2326" stroke="#263238" stroke-linecap="round" stroke-linejoin="round"/>
<path d="M69.4439 50.6183C68.1344 49.2617 65.8697 48.0131 61.9361 47.9155C53.0933 47.6997 55.4657 53.9582 53.0933 55.4689C50.7208 56.9796 50.0737 54.6057 47.7012 56.1164C45.3288 57.627 46.4072 60.6484 44.466 61.08C42.5249 61.5117 39.9368 59.1377 37.5643 60.6484C35.1918 62.1591 35.1918 63.454 34.1134 63.454C33.035 63.454 30.8782 62.5907 29.5841 63.454C28.29 64.3172 26.7803 65.3963 26.7803 65.3963H49.9351" stroke="#263238" stroke-linecap="round" stroke-linejoin="round"/>
<path d="M71.8835 54.4823C71.6729 54.3796 71.447 54.2768 71.2159 54.174C71.2159 54.174 71.144 53.1309 70.4199 51.8977" stroke="#263238" stroke-linecap="round" stroke-linejoin="round"/>
<path d="M52.9082 65.3963H81.3472C81.3472 65.3963 81.9942 63.454 79.6217 62.1591C77.2493 60.8642 76.1708 61.9433 75.3081 60.8642C74.5378 59.9033 77.0233 57.5757 73.0075 55.0938" stroke="#263238" stroke-linecap="round" stroke-linejoin="round"/>
<path d="M40.4091 17.0903C39.9007 16.561 39.0225 16.078 37.4922 16.042C34.0619 15.9598 34.9811 18.3852 34.0619 18.9761C33.1427 19.5618 32.8911 18.6421 31.9667 19.2279C31.0475 19.8136 31.4635 20.9852 30.7086 21.1547C29.9537 21.3243 28.9523 20.3994 28.028 20.9852C27.1088 21.571 27.1088 22.0745 26.6877 22.0745C26.2666 22.0745 25.4296 21.7405 24.9314 22.0745C24.4282 22.4085 23.8428 22.8299 23.8428 22.8299H32.8294" stroke="#263238" stroke-linecap="round" stroke-linejoin="round"/>
<path d="M41.3542 18.5907C41.272 18.5496 41.1847 18.5136 41.0923 18.4725C41.0923 18.4725 41.0615 18.0666 40.7842 17.5887" stroke="#263238" stroke-linecap="round" stroke-linejoin="round"/>
<path d="M33.9902 22.8247H45.031C45.031 22.8247 45.2826 22.0694 44.3634 21.5658C43.4442 21.0623 43.0231 21.4836 42.6893 21.0623C42.3915 20.6872 43.3518 19.7828 41.7958 18.8219" stroke="#263238" stroke-linecap="round" stroke-linejoin="round"/>
<path d="M220.009 41.9396C219.5 41.4103 218.622 40.9273 217.092 40.8913C213.662 40.8091 214.581 43.2344 213.662 43.8253C212.742 44.4111 212.491 43.4913 211.566 44.0771C210.647 44.6629 211.063 45.8345 210.308 46.004C209.553 46.1736 208.552 45.2487 207.628 45.8345C206.708 46.4202 206.708 46.9238 206.287 46.9238C205.866 46.9238 205.029 46.5898 204.531 46.9238C204.028 47.2578 203.442 47.6791 203.442 47.6791H212.429" stroke="#263238" stroke-linecap="round" stroke-linejoin="round"/>
<path d="M220.954 43.44C220.872 43.3989 220.784 43.3629 220.692 43.3218C220.692 43.3218 220.661 42.9159 220.384 42.438" stroke="#263238" stroke-linecap="round" stroke-linejoin="round"/>
<path d="M213.59 47.674H224.631C224.631 47.674 224.882 46.9187 223.963 46.4151C223.044 45.9115 222.623 46.3329 222.289 45.9115C221.991 45.5364 222.951 44.6321 221.395 43.6712" stroke="#263238" stroke-linecap="round" stroke-linejoin="round"/>
<path d="M107.712 110.393H54.5518V167.357H107.712V110.393Z" fill="#C9C9C9" stroke="#263238" stroke-miterlimit="10"/>
<path d="M58.1406 112.577V164.881" stroke="#263238" stroke-miterlimit="10"/>
<path d="M56.8008 112.577V164.881" stroke="white" stroke-miterlimit="10"/>
<path d="M63.1787 112.577V164.881" stroke="#263238" stroke-miterlimit="10"/>
<path d="M61.833 112.577V164.881" stroke="white" stroke-miterlimit="10"/>
<path d="M68.2109 112.577V164.881" stroke="#263238" stroke-miterlimit="10"/>
<path d="M66.8711 112.577V164.881" stroke="white" stroke-miterlimit="10"/>
<path d="M73.249 112.577V164.881" stroke="#263238" stroke-miterlimit="10"/>
<path d="M71.9033 112.577V164.881" stroke="white" stroke-miterlimit="10"/>
<path d="M78.2812 112.577V164.881" stroke="#263238" stroke-miterlimit="10"/>
<path d="M76.9414 112.577V164.881" stroke="white" stroke-miterlimit="10"/>
<path d="M83.3135 112.577V164.881" stroke="#263238" stroke-miterlimit="10"/>
<path d="M81.9736 112.577V164.881" stroke="white" stroke-miterlimit="10"/>
<path d="M88.3516 112.577V164.881" stroke="#263238" stroke-miterlimit="10"/>
<path d="M87.0059 112.577V164.881" stroke="white" stroke-miterlimit="10"/>
<path d="M123.842 110.393H91.582V167.357H123.842V110.393Z" fill="#858585" stroke="#263238" stroke-miterlimit="10"/>
<path d="M94.8172 167.517H41.6572V224.481H94.8172V167.517Z" fill="#92E3A9"/>
<path d="M110.942 167.517H78.6826V224.481H110.942V167.517Z" fill="#92E3A9"/>
<path opacity="0.2" d="M110.942 167.517H78.6826V224.481H110.942V167.517Z" fill="black"/>
<path d="M110.942 167.517H41.4414V224.481H110.942V167.517Z" stroke="#263238" stroke-miterlimit="10"/>
<path d="M110.942 167.517H78.6826V224.481H110.942V167.517Z" stroke="#263238" stroke-miterlimit="10"/>
<path d="M46.0781 169.834V222.143" stroke="#263238" stroke-miterlimit="10"/>
<path d="M44.7383 169.834V222.143" stroke="white" stroke-miterlimit="10"/>
<path d="M51.1162 169.834V222.143" stroke="#263238" stroke-miterlimit="10"/>
<path d="M49.7705 169.834V222.143" stroke="white" stroke-miterlimit="10"/>
<path d="M56.1484 169.834V222.143" stroke="#263238" stroke-miterlimit="10"/>
<path d="M54.8086 169.834V222.143" stroke="white" stroke-miterlimit="10"/>
<path d="M61.1865 169.834V222.143" stroke="#263238" stroke-miterlimit="10"/>
<path d="M59.8408 169.834V222.143" stroke="white" stroke-miterlimit="10"/>
<path d="M66.2197 169.834V222.143" stroke="#263238" stroke-miterlimit="10"/>
<path d="M64.874 169.834V222.143" stroke="white" stroke-miterlimit="10"/>
<path d="M71.251 169.834V222.143" stroke="#263238" stroke-miterlimit="10"/>
<path d="M69.9111 169.834V222.143" stroke="white" stroke-miterlimit="10"/>
<path d="M76.2891 169.834V222.143" stroke="#263238" stroke-miterlimit="10"/>
<path d="M74.9434 169.834V222.143" stroke="white" stroke-miterlimit="10"/>
<path d="M133.799 167.517H80.6387V224.481H133.799V167.517Z" fill="#C9C9C9" stroke="#263238" stroke-miterlimit="10"/>
<path d="M149.929 167.517H117.669V224.481H149.929V167.517Z" fill="#858585" stroke="#263238" stroke-miterlimit="10"/>
<path d="M84.8438 170.158V222.461" stroke="#263238" stroke-miterlimit="10"/>
<path d="M83.5039 170.158V222.461" stroke="white" stroke-miterlimit="10"/>
<path d="M89.876 170.158V222.461" stroke="#263238" stroke-miterlimit="10"/>
<path d="M88.5361 170.158V222.461" stroke="white" stroke-miterlimit="10"/>
<path d="M94.915 170.158V222.461" stroke="#263238" stroke-miterlimit="10"/>
<path d="M93.5693 170.158V222.461" stroke="white" stroke-miterlimit="10"/>
<path d="M99.9463 170.158V222.461" stroke="#263238" stroke-miterlimit="10"/>
<path d="M98.6064 170.158V222.461" stroke="white" stroke-miterlimit="10"/>
<path d="M104.985 170.158V222.461" stroke="#263238" stroke-miterlimit="10"/>
<path d="M103.64 170.158V222.461" stroke="white" stroke-miterlimit="10"/>
<path d="M110.017 170.158V222.461" stroke="#263238" stroke-miterlimit="10"/>
<path d="M108.677 170.158V222.461" stroke="white" stroke-miterlimit="10"/>
<path d="M115.049 170.158V222.461" stroke="#263238" stroke-miterlimit="10"/>
<path d="M113.709 170.158V222.461" stroke="white" stroke-miterlimit="10"/>
<path d="M172.221 167.517H119.061V224.481H172.221V167.517Z" fill="#92E3A9"/>
<path d="M188.35 167.517H156.091V224.481H188.35V167.517Z" fill="#92E3A9"/>
<path opacity="0.2" d="M188.35 167.517H156.091V224.481H188.35V167.517Z" fill="black"/>
<path d="M188.345 167.517H118.845V224.481H188.345V167.517Z" stroke="#263238" stroke-miterlimit="10"/>
<path d="M188.35 167.517H156.091V224.481H188.35V167.517Z" stroke="#263238" stroke-miterlimit="10"/>
<path d="M122.788 169.834V222.143" stroke="#263238" stroke-miterlimit="10"/>
<path d="M121.448 169.834V222.143" stroke="white" stroke-miterlimit="10"/>
<path d="M127.826 169.834V222.143" stroke="#263238" stroke-miterlimit="10"/>
<path d="M126.48 169.834V222.143" stroke="white" stroke-miterlimit="10"/>
<path d="M132.858 169.834V222.143" stroke="#263238" stroke-miterlimit="10"/>
<path d="M131.519 169.834V222.143" stroke="white" stroke-miterlimit="10"/>
<path d="M137.891 169.834V222.143" stroke="#263238" stroke-miterlimit="10"/>
<path d="M136.551 169.834V222.143" stroke="white" stroke-miterlimit="10"/>
<path d="M142.93 169.834V222.143" stroke="#263238" stroke-miterlimit="10"/>
<path d="M141.584 169.834V222.143" stroke="white" stroke-miterlimit="10"/>
<path d="M147.961 169.834V222.143" stroke="#263238" stroke-miterlimit="10"/>
<path d="M146.621 169.834V222.143" stroke="white" stroke-miterlimit="10"/>
<path d="M152.999 169.834V222.143" stroke="#263238" stroke-miterlimit="10"/>
<path d="M151.653 169.834V222.143" stroke="white" stroke-miterlimit="10"/>
<path d="M210.874 167.517H157.714V224.481H210.874V167.517Z" fill="#C9C9C9" stroke="#263238" stroke-miterlimit="10"/>
<path d="M161.766 170.142V222.451" stroke="#263238" stroke-miterlimit="10"/>
<path d="M160.42 170.142V222.451" stroke="white" stroke-miterlimit="10"/>
<path d="M166.798 170.142V222.451" stroke="#263238" stroke-miterlimit="10"/>
<path d="M165.458 170.142V222.451" stroke="white" stroke-miterlimit="10"/>
<path d="M171.836 170.142V222.451" stroke="#263238" stroke-miterlimit="10"/>
<path d="M170.49 170.142V222.451" stroke="white" stroke-miterlimit="10"/>
<path d="M176.868 170.142V222.451" stroke="#263238" stroke-miterlimit="10"/>
<path d="M175.522 170.142V222.451" stroke="white" stroke-miterlimit="10"/>
<path d="M181.9 170.142V222.451" stroke="#263238" stroke-miterlimit="10"/>
<path d="M180.561 170.142V222.451" stroke="white" stroke-miterlimit="10"/>
<path d="M186.938 170.142V222.451" stroke="#263238" stroke-miterlimit="10"/>
<path d="M185.593 170.142V222.451" stroke="white" stroke-miterlimit="10"/>
<path d="M191.971 170.142V222.451" stroke="#263238" stroke-miterlimit="10"/>
<path d="M190.631 170.142V222.451" stroke="white" stroke-miterlimit="10"/>
<path d="M227.004 167.517H194.744V224.481H227.004V167.517Z" fill="#858585" stroke="#263238" stroke-miterlimit="10"/>
<path d="M146.95 70.0774H93.79V127.042H146.95V70.0774Z" fill="#92E3A9"/>
<path d="M163.08 70.0774H130.82V127.042H163.08V70.0774Z" fill="#92E3A9"/>
<path opacity="0.2" d="M163.08 70.0774H130.82V127.042H163.08V70.0774Z" fill="black"/>
<path d="M163.079 70.0774H93.5791V127.042H163.079V70.0774Z" stroke="#263238" stroke-miterlimit="10"/>
<path d="M163.08 70.0774H130.82V127.042H163.08V70.0774Z" stroke="#263238" stroke-miterlimit="10"/>
<path d="M97.7334 72.03V124.339" stroke="#263238" stroke-miterlimit="10"/>
<path d="M96.3936 72.03V124.339" stroke="white" stroke-miterlimit="10"/>
<path d="M102.771 72.03V124.339" stroke="#263238" stroke-miterlimit="10"/>
<path d="M101.426 72.03V124.339" stroke="white" stroke-miterlimit="10"/>
<path d="M107.804 72.03V124.339" stroke="#263238" stroke-miterlimit="10"/>
<path d="M106.464 72.03V124.339" stroke="white" stroke-miterlimit="10"/>
<path d="M112.842 72.03V124.339" stroke="#263238" stroke-miterlimit="10"/>
<path d="M111.496 72.03V124.339" stroke="white" stroke-miterlimit="10"/>
<path d="M117.874 72.03V124.339" stroke="#263238" stroke-miterlimit="10"/>
<path d="M116.534 72.03V124.339" stroke="white" stroke-miterlimit="10"/>
<path d="M122.906 72.03V124.339" stroke="#263238" stroke-miterlimit="10"/>
<path d="M121.566 72.03V124.339" stroke="white" stroke-miterlimit="10"/>
<path d="M127.944 72.03V124.339" stroke="#263238" stroke-miterlimit="10"/>
<path d="M126.599 72.03V124.339" stroke="white" stroke-miterlimit="10"/>
<path d="M105.339 69.9335L127.595 41.9138L149.178 70.2058V126.261" stroke="#263238" stroke-miterlimit="10"/>
<path d="M126.953 32.6339L126.794 35.3521L125.089 38.5636C124.504 39.6632 124.812 41.0198 125.808 41.7648L126.075 41.9601C127.03 42.6743 128.355 42.6178 129.249 41.8265C130.296 40.9016 130.389 39.2984 129.454 38.2553L128.838 37.5668" stroke="#263238" stroke-width="4" stroke-miterlimit="10" stroke-linecap="round"/>
<path d="M130.291 33.8825H124.612L122.82 24.3149C122.275 21.4117 124.499 18.7294 127.452 18.7294C130.404 18.7294 132.628 21.4117 132.084 24.3149L130.291 33.8825Z" fill="white" stroke="#263238" stroke-miterlimit="10"/>
<path d="M129.048 33.8825H123.369L121.576 24.3149C121.032 21.4117 123.256 18.7294 126.208 18.7294C129.161 18.7294 131.385 21.4117 130.84 24.3149L129.048 33.8825Z" fill="white" stroke="#263238" stroke-miterlimit="10"/>
<path d="M121.869 21.6121L130.05 28.5283L130.353 26.8995L122.634 20.3737C122.316 20.7437 122.059 21.1599 121.869 21.6121Z" fill="#263238"/>
<path d="M130.851 24.2224C130.964 23.5492 130.928 22.8864 130.769 22.2698L126.61 18.7551C126.476 18.7448 126.343 18.7346 126.204 18.7346C125.66 18.7346 125.141 18.827 124.658 18.9915L130.846 24.2224H130.851Z" fill="#263238"/>
<path d="M126.825 33.8825L122.722 30.4141L123.138 32.6545L124.591 33.8825H126.825Z" fill="#263238"/>
<path d="M122.029 26.7299L129.244 32.8292L129.552 31.2054L121.607 24.4896L122.029 26.7299Z" fill="#263238"/>
<path d="M126.614 18.7551V0" stroke="#263238" stroke-width="2" stroke-miterlimit="10"/>
<path d="M123.99 19.5259V0" stroke="#263238" stroke-miterlimit="10"/>
<path d="M129.115 19.5259V0" stroke="#263238" stroke-miterlimit="10"/>
<path d="M188.992 110.393H135.832V167.357H188.992V110.393Z" fill="#C9C9C9" stroke="#263238" stroke-miterlimit="10"/>
<path d="M139.494 112.577V164.881" stroke="#263238" stroke-miterlimit="10"/>
<path d="M138.148 112.577V164.881" stroke="white" stroke-miterlimit="10"/>
<path d="M144.526 112.577V164.881" stroke="#263238" stroke-miterlimit="10"/>
<path d="M143.187 112.577V164.881" stroke="white" stroke-miterlimit="10"/>
<path d="M149.564 112.577V164.881" stroke="#263238" stroke-miterlimit="10"/>
<path d="M148.219 112.577V164.881" stroke="white" stroke-miterlimit="10"/>
<path d="M154.596 112.577V164.881" stroke="#263238" stroke-miterlimit="10"/>
<path d="M153.256 112.577V164.881" stroke="white" stroke-miterlimit="10"/>
<path d="M159.629 112.577V164.881" stroke="#263238" stroke-miterlimit="10"/>
<path d="M158.289 112.577V164.881" stroke="white" stroke-miterlimit="10"/>
<path d="M164.667 112.577V164.881" stroke="#263238" stroke-miterlimit="10"/>
<path d="M163.321 112.577V164.881" stroke="white" stroke-miterlimit="10"/>
<path d="M169.699 112.577V164.881" stroke="#263238" stroke-miterlimit="10"/>
<path d="M168.359 112.577V164.881" stroke="white" stroke-miterlimit="10"/>
<path d="M205.122 110.393H172.862V167.357H205.122V110.393Z" fill="#858585" stroke="#263238" stroke-miterlimit="10"/>
<path d="M239.97 200.433H168.267V215.15H239.97V200.433Z" fill="#263238" stroke="#263238" stroke-miterlimit="10"/>
<path d="M229.243 224.126C233.922 224.126 237.716 218.743 237.716 212.102C237.716 205.462 233.922 200.079 229.243 200.079C224.563 200.079 220.77 205.462 220.77 212.102C220.77 218.743 224.563 224.126 229.243 224.126Z" fill="#263238" stroke="#263238" stroke-miterlimit="10"/>
<path d="M233.603 217.164L233.582 215.91C233.865 214.713 234.019 213.433 234.019 212.102C234.019 210.576 233.813 209.117 233.449 207.771L233.433 206.748L231.148 200.906L229.243 200.073H225.545C220.867 200.073 217.072 205.459 217.072 212.097C217.072 218.736 220.867 224.121 225.545 224.121H229.243L231.056 221.228C231.646 220.514 232.165 219.687 232.596 218.767L233.603 217.159V217.164Z" fill="#263238" stroke="#263238" stroke-miterlimit="10"/>
<path d="M229.243 217.025C231.157 217.025 232.709 214.821 232.709 212.102C232.709 209.384 231.157 207.18 229.243 207.18C227.328 207.18 225.776 209.384 225.776 212.102C225.776 214.821 227.328 217.025 229.243 217.025Z" fill="#969696" stroke="#263238" stroke-miterlimit="10"/>
<path d="M210.247 224.126C214.926 224.126 218.72 218.743 218.72 212.102C218.72 205.462 214.926 200.079 210.247 200.079C205.567 200.079 201.773 205.462 201.773 212.102C201.773 218.743 205.567 224.126 210.247 224.126Z" fill="#263238" stroke="#263238" stroke-miterlimit="10"/>
<path d="M214.607 217.164L214.586 215.91C214.868 214.713 215.022 213.433 215.022 212.102C215.022 210.576 214.817 209.117 214.452 207.771L214.437 206.748L212.152 200.906L210.247 200.073H206.549C201.871 200.073 198.076 205.459 198.076 212.097C198.076 218.736 201.871 224.121 206.549 224.121H210.247L212.059 221.228C212.65 220.514 213.169 219.687 213.6 218.767L214.607 217.159V217.164Z" fill="#263238" stroke="#263238" stroke-miterlimit="10"/>
<path d="M210.247 217.025C212.161 217.025 213.713 214.821 213.713 212.102C213.713 209.384 212.161 207.18 210.247 207.18C208.332 207.18 206.78 209.384 206.78 212.102C206.78 214.821 208.332 217.025 210.247 217.025Z" fill="#969696" stroke="#263238" stroke-miterlimit="10"/>
<path d="M246.096 178.667H190.636V200.433H246.096V178.667Z" fill="#969696" stroke="#263238" stroke-miterlimit="10"/>
<path d="M246.096 197.371H190.636V200.438H246.096V197.371Z" fill="#969696" stroke="#263238" stroke-miterlimit="10"/>
<path d="M246.096 176.519H243.03V200.433H246.096V176.519Z" fill="#969696" stroke="#263238" stroke-miterlimit="10"/>
<path d="M191.251 168.858H167.044V207.185H191.251V168.858Z" fill="#263238" stroke="#263238" stroke-miterlimit="10"/>
<path d="M156.317 208.711H134.256V215.761H156.317V208.711Z" fill="#263238" stroke="#263238" stroke-miterlimit="10"/>
<path d="M168.266 198.29H114.033V211.167H168.266V198.29Z" fill="#263238" stroke="#263238" stroke-miterlimit="10"/>
<path d="M166.428 224.126C171.108 224.126 174.901 218.743 174.901 212.102C174.901 205.462 171.108 200.079 166.428 200.079C161.749 200.079 157.955 205.462 157.955 212.102C157.955 218.743 161.749 224.126 166.428 224.126Z" fill="#263238" stroke="#263238" stroke-miterlimit="10"/>
<path d="M170.788 217.164L170.768 215.91C171.05 214.713 171.204 213.433 171.204 212.102C171.204 210.576 170.999 209.117 170.634 207.771L170.619 206.748L168.333 200.906L166.428 200.073H162.731C158.053 200.073 154.258 205.459 154.258 212.097C154.258 218.736 158.053 224.121 162.731 224.121H166.428L168.241 221.228C168.832 220.514 169.35 219.687 169.782 218.767L170.788 217.159V217.164Z" fill="#263238" stroke="#263238" stroke-miterlimit="10"/>
<path d="M166.428 217.025C168.343 217.025 169.894 214.821 169.894 212.102C169.894 209.384 168.343 207.18 166.428 207.18C164.514 207.18 162.962 209.384 162.962 212.102C162.962 214.821 164.514 217.025 166.428 217.025Z" fill="#969696" stroke="#263238" stroke-miterlimit="10"/>
<path d="M133.948 224.126C138.627 224.126 142.421 218.743 142.421 212.102C142.421 205.462 138.627 200.079 133.948 200.079C129.268 200.079 125.475 205.462 125.475 212.102C125.475 218.743 129.268 224.126 133.948 224.126Z" fill="#263238" stroke="#263238" stroke-miterlimit="10"/>
<path d="M138.308 217.164L138.287 215.91C138.57 214.713 138.724 213.433 138.724 212.102C138.724 210.576 138.518 209.117 138.154 207.771L138.138 206.748L135.853 200.906L133.948 200.073H130.25C125.572 200.073 121.777 205.459 121.777 212.097C121.777 218.736 125.572 224.121 130.25 224.121H133.948L135.761 221.228C136.351 220.514 136.87 219.687 137.301 218.767L138.308 217.159V217.164Z" fill="#263238" stroke="#263238" stroke-miterlimit="10"/>
<path d="M113.726 200.433H147.125V182.346L150.751 162.723H117.351L113.726 182.058V200.433Z" fill="white" stroke="#263238" stroke-miterlimit="10"/>
<path d="M150.75 162.723H169.309V200.341H147.099L147.124 182.346L150.75 162.723Z" fill="white" stroke="#263238" stroke-miterlimit="10"/>
<path d="M152.851 165.79H167.656V178.667H159.383L155.398 182.038V188.173H149.883V179.895L152.851 165.79Z" fill="#C2C2C2" stroke="#263238" stroke-miterlimit="10"/>
<path d="M160.096 171.715H156.214V182.141H160.096V171.715Z" fill="#263238" stroke="#263238" stroke-miterlimit="10"/>
<path d="M158.052 182.346V184.083C158.052 184.705 157.549 185.208 156.928 185.208H151.31" stroke="#263238" stroke-width="4" stroke-miterlimit="10" stroke-linecap="round"/>
<path d="M117.977 165.482L115.179 180.815H146.432L149.236 165.482H117.977Z" fill="#C2C2C2" stroke="#263238" stroke-miterlimit="10"/>
<path d="M128.715 177.788L127.693 178.811" stroke="#263238" stroke-miterlimit="10"/>
<path d="M140.033 166.468L129.649 176.853" stroke="#263238" stroke-miterlimit="10"/>
<path d="M129.31 172.599L123.097 178.811" stroke="#263238" stroke-miterlimit="10"/>
<path d="M149.508 165.877H117.084L117.721 163.062H150.15L149.508 165.877Z" fill="#969696" stroke="#263238" stroke-miterlimit="10"/>
<path d="M148.408 165.877H115.984L116.621 163.062H149.045L148.408 165.877Z" fill="#969696" stroke="#263238" stroke-miterlimit="10"/>
<path d="M149.271 201.97H111.887V212.087H149.271V201.97Z" fill="#969696" stroke="#263238" stroke-miterlimit="10"/>
<path d="M159.691 208.1H146.514V212.087H159.691V208.1Z" fill="#969696" stroke="#263238" stroke-miterlimit="10"/>
<path d="M158.156 212.01H155.09V204.575C155.09 200.433 158.459 197.062 162.598 197.062H170.716V200.13H162.598C160.148 200.13 158.156 202.124 158.156 204.575V212.01Z" fill="#969696" stroke="#263238" stroke-miterlimit="10"/>
<path d="M159.141 212.01H156.075V204.575C156.075 200.433 159.444 197.062 163.583 197.062H171.702V200.13H163.583C161.133 200.13 159.141 202.124 159.141 204.575V212.01Z" fill="#969696" stroke="#263238" stroke-miterlimit="10"/>
<path d="M144.788 192.983H114.896V194.216H144.788V192.983Z" fill="#263238" stroke="#263238" stroke-miterlimit="10"/>
<path d="M144.788 196.99H114.896V198.224H144.788V196.99Z" fill="#263238" stroke="#263238" stroke-miterlimit="10"/>
<path d="M123.215 182.192H119.826V183.425H123.215V182.192Z" fill="#263238" stroke="#263238" stroke-miterlimit="10"/>
<path d="M137.234 182.192H133.845V183.425H137.234V182.192Z" fill="#263238" stroke="#263238" stroke-miterlimit="10"/>
<path d="M192.474 180.815H194.312V194.915" stroke="#263238" stroke-miterlimit="10"/>
<path d="M196.768 180.815H198.606V194.915" stroke="#263238" stroke-miterlimit="10"/>
<path d="M201.055 180.815H202.893V194.915" stroke="#263238" stroke-miterlimit="10"/>
<path d="M205.343 180.815H207.181V194.915" stroke="#263238" stroke-miterlimit="10"/>
<path d="M209.636 180.815H211.474V194.915" stroke="#263238" stroke-miterlimit="10"/>
<path d="M213.924 180.815H215.762V194.915" stroke="#263238" stroke-miterlimit="10"/>
<path d="M218.212 180.815H220.05V194.915" stroke="#263238" stroke-miterlimit="10"/>
<path d="M222.505 180.815H224.343V194.915" stroke="#263238" stroke-miterlimit="10"/>
<path d="M226.793 180.815H228.631V194.915" stroke="#263238" stroke-miterlimit="10"/>
<path d="M231.081 180.815H232.919V194.915" stroke="#263238" stroke-miterlimit="10"/>
<path d="M235.374 180.815H237.212V194.915" stroke="#263238" stroke-miterlimit="10"/>
<path d="M239.662 180.815H241.501V194.915" stroke="#263238" stroke-miterlimit="10"/>
<path d="M3.01465 224.481H245.013" stroke="#263238" stroke-miterlimit="10"/>
<path d="M50.9726 97.7065C50.9726 97.7065 48.6258 98.8215 48.5025 99.9314C48.3793 101.046 48.1328 105.003 49.3704 106.118C50.608 107.233 52.7083 108.096 54.0691 108.59C55.43 109.083 57.9 108.096 57.9 108.096L54.8086 100.8C54.8086 100.8 53.2013 98.5749 52.5851 98.0765C51.9688 97.5832 50.9777 97.7065 50.9777 97.7065H50.9726Z" fill="white" stroke="#263238" stroke-miterlimit="10"/>
<path d="M50.4787 89.7934L49.7393 99.1915L51.5931 98.5749L51.2233 89.7934H50.4787Z" fill="#263238" stroke="#263238" stroke-miterlimit="10"/>
<path d="M50.9718 97.7065C50.9718 97.7065 48.8715 97.8298 48.1268 99.1915C47.3874 100.553 48.1268 105.378 48.3733 105.871C48.6198 106.365 52.3275 106.241 52.8256 104.633C53.3186 103.025 52.5791 98.0765 52.5791 98.0765C52.5791 98.0765 51.3415 97.5832 50.9718 97.7065Z" fill="#263238" stroke="#263238" stroke-miterlimit="10"/>
<path d="M57.7711 106.986C57.7711 106.986 56.1638 103.646 55.6708 101.668C55.1778 99.6899 54.9313 98.4516 53.5705 97.835C52.2096 97.2184 51.8399 95.3634 51.2237 95.2349C50.6074 95.1116 49.6163 97.2132 49.8628 97.835C50.1093 98.4516 51.5934 99.0733 51.5934 99.0733C51.5934 99.0733 50.9772 101.422 51.3469 103.277C51.7166 105.131 52.831 105.625 52.831 105.625" fill="white"/>
<path d="M57.7711 106.986C57.7711 106.986 56.1638 103.646 55.6708 101.668C55.1778 99.6899 54.9313 98.4516 53.5705 97.835C52.2096 97.2184 51.8399 95.3634 51.2237 95.2349C50.6074 95.1116 49.6163 97.2132 49.8628 97.835C50.1093 98.4516 51.5934 99.0733 51.5934 99.0733C51.5934 99.0733 50.9772 101.422 51.3469 103.277C51.7166 105.131 52.831 105.625 52.831 105.625" stroke="#263238" stroke-miterlimit="10"/>
<path d="M50.9465 127.576C50.9465 127.576 53.889 149.512 52.713 152.898C51.5371 156.284 49.18 157.019 48.1529 156.875C47.1208 156.726 45.0615 125.228 45.0615 125.228L50.9465 127.581V127.576Z" fill="#92E3A9" stroke="#263238" stroke-miterlimit="10"/>
<path d="M54.5565 116.015L52.9492 110.075C52.9492 110.075 52.9492 107.726 55.1728 107.105C57.3963 106.488 59.0037 106.981 59.0037 106.981C59.0037 106.981 69.2639 123.434 70.1317 124.298C70.9996 125.161 70.1317 130.608 69.0174 132.339C67.903 134.071 65.5562 130.854 62.8346 126.651C60.1129 122.448 54.5514 116.015 54.5514 116.015H54.5565Z" fill="white" stroke="#263238" stroke-miterlimit="10"/>
<path d="M25.7531 99.4382L25.0137 105.003L38.9815 105.743V101.165L37.0045 91.7614C37.0045 91.7614 29.3375 99.3046 27.7302 99.3046C26.1229 99.3046 25.7531 99.4279 25.7531 99.4279V99.4382Z" fill="white" stroke="#263238" stroke-miterlimit="10"/>
<path d="M39.6027 85.0918C39.6027 85.0918 40.717 86.5768 40.717 87.1934C40.717 87.81 40.1008 87.81 40.8403 88.3084C41.5798 88.8017 43.6852 89.3001 43.4387 90.04C43.1922 90.78 41.7081 93.38 41.7081 93.38L43.069 96.8433C43.069 96.8433 43.8084 99.8133 43.1922 100.183C42.576 100.553 40.5938 100.923 40.1008 100.553C39.6078 100.183 37.8772 94.6132 37.6308 92.7583C37.3843 90.9033 36.6396 87.6867 36.6396 87.6867L39.6078 85.0866L39.6027 85.0918Z" fill="white" stroke="#263238" stroke-miterlimit="10"/>
<path d="M20.1914 93.2567C20.1914 93.2567 23.0363 99.4433 23.6526 100.183C24.2688 100.923 25.0134 101.915 28.4746 101.915C31.9357 101.915 34.5341 99.8133 34.9039 98.5749C35.2736 97.3365 35.3969 95.3583 35.6434 94.2432C35.8898 93.1282 36.7577 94.4899 36.7577 94.4899C36.7577 94.4899 37.872 101.663 38.6115 102.531C39.351 103.4 44.4195 102.778 44.7944 101.046C45.1641 99.3148 42.8173 96.3448 42.8173 96.3448L42.3243 95.8516C42.3243 95.8516 42.694 98.5749 41.4564 98.0765C40.2189 97.5832 38.1185 91.1499 37.9953 90.78C37.872 90.41 37.9953 89.0483 38.2418 88.555C38.4883 88.0618 39.6026 86.7001 39.8491 86.0835C40.0956 85.4669 40.0956 84.9684 40.0956 84.9684L20.6844 91.7717L20.1914 93.2567Z" fill="#263238" stroke="#263238" stroke-miterlimit="10"/>
<path d="M33.789 88.0617C33.789 88.0617 29.5833 95.2349 26.8667 96.7199C24.1502 98.2049 21.3053 95.8515 21.3053 95.8515C21.3053 95.8515 20.9355 97.5832 22.0447 98.9448C23.1591 100.307 26.99 100.8 30.8209 98.2049C34.6517 95.6049 34.6517 91.895 35.0215 90.7851C35.3912 89.6752 35.8893 87.1985 35.8893 87.1985L33.789 88.0669V88.0617Z" fill="white" stroke="#263238" stroke-miterlimit="10"/>
<path d="M21.6752 77.5435C21.6752 77.5435 18.0908 79.6451 17.8443 83.8534C17.5978 88.0566 19.6982 91.3966 19.6982 92.265C19.6982 93.1334 19.2052 93.9966 19.2052 93.9966C19.2052 93.9966 42.0775 85.0918 42.6938 84.9684C43.31 84.8451 42.324 84.1001 42.324 84.1001L39.3559 83.7301C39.3559 83.7301 37.2556 78.1652 34.9036 76.5569C32.5568 74.9486 29.3421 74.5786 26.0042 75.5652C22.6663 76.5569 21.6752 77.5435 21.6752 77.5435Z" fill="white" stroke="#263238" stroke-miterlimit="10"/>
<path d="M37.1271 95.6049C37.1271 95.6049 36.8806 92.7582 35.7663 92.2649C34.6519 91.7717 34.159 93.7499 34.6519 95.6049C35.1449 97.4599 37.3736 97.3365 37.3736 97.3365L37.1271 95.6049Z" fill="white" stroke="#263238" stroke-miterlimit="10"/>
<path d="M21.3061 106.74C21.3061 106.74 22.9134 104.392 24.8905 103.277C26.8676 102.161 31.8128 101.668 35.5205 102.783C39.2281 103.898 40.4657 105.008 40.5889 105.383C40.7122 105.753 40.8354 106.252 40.8354 106.252C40.8354 106.252 30.2055 105.758 26.4927 106.498C22.7799 107.238 21.1777 107.613 21.1777 107.613L21.301 106.745L21.3061 106.74Z" fill="white" stroke="#263238" stroke-miterlimit="10"/>
<path d="M10.1778 113.913C10.1778 113.913 8.07745 126.158 5.97714 134.446C3.87682 142.734 4.49305 145.458 7.46122 145.458C10.4294 145.458 16.2374 144.718 16.2374 144.718L11.5386 113.548L10.1778 113.918V113.913Z" fill="white" stroke="#263238" stroke-miterlimit="10"/>
<path d="M14.2608 136.671L10.9229 140.756" stroke="#263238" stroke-miterlimit="10"/>
<path d="M51.8044 229.928C51.8044 229.928 54.7058 232.661 56.9243 233.175C59.1427 233.689 60.1646 234.711 60.1697 235.225C60.1697 237.579 45.0824 238.576 43.4443 236.931C42.4223 235.909 43.1053 230.441 43.1053 230.441L51.8096 229.928H51.8044Z" fill="white" stroke="#263238" stroke-miterlimit="10"/>
<path d="M42.9561 235.492C43.0382 236.145 43.1871 236.674 43.4388 236.931C45.0769 238.57 60.1643 237.579 60.1643 235.225C60.1643 234.943 59.8356 234.496 59.1731 234.074C57.6993 234.655 55.3012 235.369 51.8041 235.739C47.4032 236.202 44.4196 235.801 42.9561 235.498V235.492Z" fill="white" stroke="#263238" stroke-miterlimit="10"/>
<path d="M32.8597 229.758C32.8597 229.758 33.1986 231.978 34.7392 232.492C36.2747 233.006 37.3017 233.345 37.3017 234.711C37.3017 236.078 34.9138 236.931 32.6954 237.101C30.477 237.27 24.8436 237.44 23.9912 237.27C23.1387 237.101 23.4776 230.267 23.4776 230.267C23.4776 230.267 30.8159 231.12 32.8649 229.753L32.8597 229.758Z" fill="white" stroke="#263238" stroke-miterlimit="10"/>
<path d="M23.4417 234.912C23.5033 236.171 23.6573 237.209 23.9809 237.276C24.8333 237.445 30.4667 237.276 32.6851 237.106C34.9035 236.936 37.2914 236.083 37.2914 234.717C37.2914 234.259 37.1682 233.925 36.9576 233.653C35.6789 234.074 33.0702 234.819 29.9531 235.061C27.668 235.236 25.2493 235.097 23.4365 234.917L23.4417 234.912Z" fill="white" stroke="#263238" stroke-miterlimit="10"/>
<path d="M48.7327 143.335C48.7327 143.335 50.2681 157.168 50.7816 162.296C51.2952 167.419 53.5752 186.298 53.2363 191.765C52.8974 197.232 52.5533 202.185 52.5533 202.185C52.5533 202.185 51.4646 220.879 51.1257 223.613C50.7868 226.346 50.6122 227.538 50.6122 227.538L52.1476 228.735L52.4865 230.441C52.4865 230.441 47.0226 231.808 46.1702 231.808C45.3177 231.808 42.9247 231.469 42.9247 231.469C42.9247 231.469 41.5587 212.683 41.5587 211.83C41.5587 210.977 40.3622 195.603 40.3622 194.581C40.3622 193.558 39.5098 189.113 39.5098 189.113L34.5594 169.3C34.5594 169.3 32.341 202.432 32.341 204.313C32.341 206.193 31.8275 227.03 31.8275 227.03L32.8494 228.91L33.0188 230.277C33.0188 230.277 28.9209 231.983 27.0465 231.983C25.1722 231.983 22.7792 230.96 22.7792 230.96C22.7792 230.96 21.0743 217.981 21.0743 216.27V191.847C21.0743 188.944 21.2437 177.84 21.2437 177.84L18.5118 161.613L18.1729 155.637C18.1729 155.637 30.8055 154.44 33.707 152.389C36.6084 150.339 38.3133 145.386 39.6792 144.194C41.0452 142.996 48.7275 143.341 48.7275 143.341L48.7327 143.335Z" fill="#263238" stroke="#263238" stroke-miterlimit="10"/>
<path d="M44.5476 106.241C44.5476 106.241 48.132 107.973 49.7393 110.198C51.3467 112.423 67.7897 125.166 68.8989 127.638C70.0133 130.109 69.7668 132.956 68.5292 134.564C67.2916 136.173 60.9907 134.688 59.1317 133.948C57.2727 133.208 48.625 127.761 48.625 127.761C48.625 127.761 50.5661 146.886 50.5661 148.494C50.5661 150.103 43.6181 150.442 43.6181 150.442C43.6181 150.442 42.9403 138.033 43.1868 133.084C43.4333 128.136 44.5476 106.241 44.5476 106.241Z" fill="white" stroke="#263238" stroke-miterlimit="10"/>
<path d="M48.6247 127.766L46.2471 126.209L48.9739 132.894L48.6247 127.766Z" fill="#263238" stroke="#263238" stroke-miterlimit="10"/>
<path d="M21.1822 107.603C21.1822 107.603 9.80762 112.675 9.80762 113.666C9.80762 114.658 15.9904 155.724 18.214 157.579C20.4376 159.434 23.6522 161.787 31.3191 160.796C38.9861 159.804 44.301 157.332 45.9084 152.014C47.5157 146.696 45.5386 124.678 46.0316 117.875C46.5246 111.071 46.1549 106.493 46.1549 106.493L40.8399 106.247C40.8399 106.247 29.0956 105.008 21.1822 107.608V107.603Z" fill="#92E3A9" stroke="#263238" stroke-miterlimit="10"/>
<path d="M15.8672 122.941L16.1137 126.528L41.3329 124.796L41.0812 121.333L15.8672 122.941Z" fill="white"/>
<path d="M17.8447 137.786L18.5842 141.871L41.4566 140.011L41.2101 135.808L17.8447 137.786Z" fill="white"/>
</g>
<defs>
<clipPath id="clip0_50_1174">
<rect width="247" height="238" fill="white"/>
</clipPath>
</defs>
</svg>
