<svg width="78" height="73" viewBox="0 0 78 73" fill="none" xmlns="http://www.w3.org/2000/svg">
<g clip-path="url(#clip0_48_1025)">
<path d="M19.4996 48.7071C14.186 48.7071 8.87234 47.9062 6.11801 46.3288C5.2649 45.8434 4.87491 45.3823 4.87491 45.3095C5.70364 34.6799 7.8486 32.9082 12.0654 29.3165L13.1623 28.3943C15.0878 29.2922 17.2084 29.8019 19.4509 29.8019C20.3284 29.8019 21.1084 29.7048 21.9371 29.5592V24.5841C21.1327 24.8025 20.3284 24.9481 19.4509 24.9481C13.8935 24.9481 9.35983 20.4342 9.35983 14.9009C9.35983 9.36769 13.8935 4.85372 19.4509 4.85372C25.0083 4.85372 29.542 9.36769 29.542 14.9009C29.542 15.7503 29.4445 16.3813 29.2495 17.1579H34.2219C34.3437 16.4056 34.4169 15.6775 34.4169 14.9009C34.4169 6.67387 27.7139 0 19.4509 0C11.1879 0 4.48492 6.67387 4.48492 14.9009C4.48492 19.0751 6.21551 22.861 8.99421 25.5549L8.92108 25.6277C3.87555 29.8989 0.950607 32.884 0 45.1396C0 46.6443 0.633738 48.8042 3.68056 50.5515C7.14174 52.5416 13.5279 53.5366 19.4996 53.5851V48.7071Z" fill="#08BCB8"/>
<path d="M19.5 9.7317C22.3518 9.7317 24.643 12.0372 24.643 14.8524C24.643 15.5319 25.1792 16.0658 25.8617 16.0658C26.5442 16.0658 27.0805 15.5319 27.0805 14.8524C27.0805 10.6782 23.668 7.30484 19.5 7.30484C18.8175 7.30484 18.2812 7.83875 18.2812 8.51827C18.2812 9.19779 18.8175 9.7317 19.5 9.7317Z" fill="#08BCB8"/>
<path d="M48.6284 17.1579C48.4578 16.4298 48.3603 15.6775 48.3603 14.9009C48.3603 9.36768 52.8939 4.85372 58.4513 4.85372C64.0087 4.85372 68.5424 9.36768 68.5424 14.9009C68.5424 20.4342 64.0087 24.9481 58.4513 24.9481C57.6226 24.9481 56.8182 24.8511 56.0626 24.6569V29.6077C56.8426 29.729 57.647 29.8019 58.4513 29.8019C60.7182 29.8019 62.8631 29.2922 64.8131 28.37L65.9343 29.3165C70.1755 32.884 72.2961 34.6798 73.1248 45.1154C73.1248 45.358 72.7348 45.8191 71.8817 46.3288C69.1274 47.9062 63.8137 48.7071 58.5001 48.7071V53.5851C64.4718 53.5366 70.8823 52.5415 74.3192 50.5515C77.366 48.8042 77.9997 46.6443 77.9997 44.9455C77.0491 32.9082 74.1485 29.8989 69.0786 25.6277L68.9568 25.5306C71.7111 22.8368 73.4173 19.0751 73.4173 14.9252C73.4173 6.69813 66.7143 0.0242615 58.4513 0.0242615C50.1883 0.0242615 43.4854 6.69813 43.4854 14.9252C43.4854 15.7018 43.5585 16.4541 43.656 17.1822H48.604L48.6284 17.1579Z" fill="#08BCB8"/>
<path d="M66.0805 14.8524C66.0805 10.6782 62.668 7.30484 58.5 7.30484C57.8175 7.30484 57.2812 7.83875 57.2812 8.51827C57.2812 9.19779 57.8175 9.7317 58.5 9.7317C61.3518 9.7317 63.643 12.0372 63.643 14.8524C63.643 15.5319 64.1792 16.0658 64.8617 16.0658C65.5442 16.0658 66.0805 15.5319 66.0805 14.8524Z" fill="#08BCB8"/>
<path d="M64.3252 35.141C67.9327 36.9369 67.9327 42.7856 67.9327 44.7028C67.9327 45.3823 68.4689 45.9162 69.1514 45.9162C69.8339 45.9162 70.3701 45.3823 70.3701 44.7028C70.3701 42.4216 70.3701 35.4322 65.4221 32.9811C64.8127 32.6898 64.0815 32.9325 63.789 33.515C63.4965 34.1217 63.7402 34.8497 64.3252 35.141Z" fill="#08BCB8"/>
<path d="M39 29.1466C41.8518 29.1466 44.143 31.4521 44.143 34.2673C44.143 34.9468 44.6792 35.4807 45.3617 35.4807C46.0442 35.4807 46.5805 34.9468 46.5805 34.2673C46.5805 30.0931 43.168 26.7198 39 26.7198C38.3175 26.7198 37.7812 27.2537 37.7812 27.9332C37.7812 28.6127 38.3175 29.1466 39 29.1466Z" fill="#08BCB8"/>
<path d="M45.9221 52.396C45.3371 52.1047 44.5815 52.3474 44.289 52.9299C43.9965 53.5366 44.2402 54.2646 44.8252 54.5559C48.4327 56.3517 48.4327 62.2005 48.4327 64.1177C48.4327 64.7972 48.9689 65.3311 49.6514 65.3311C50.3339 65.3311 50.8701 64.7972 50.8701 64.1177C50.8701 61.8364 50.8701 54.8471 45.9221 52.396Z" fill="#08BCB8"/>
<path d="M49.5782 45.0425L49.4563 44.9455C52.2106 42.2516 53.9169 38.49 53.9169 34.3401C53.9169 26.113 47.2139 19.4391 38.9509 19.4391C30.6879 19.4391 23.9849 26.113 23.9849 34.3401C23.9849 38.5143 25.7155 42.3002 28.4942 44.994L28.4211 45.0668C23.3756 49.3381 20.4506 52.3231 19.5 64.5788C19.5 66.0834 20.1337 68.2433 23.1806 69.9907C26.7392 72.0292 32.8573 73.0485 38.9996 73.0485C45.142 73.0485 51.2844 72.0292 54.8187 69.9907C57.8655 68.2433 58.4993 66.0834 58.4993 64.3846C57.5487 52.3474 54.6481 49.3381 49.5782 45.0668V45.0425ZM49.042 34.3158C49.042 39.8491 44.5083 44.363 38.9509 44.363C33.3935 44.363 28.8598 39.8491 28.8598 34.3158C28.8598 28.7826 33.3935 24.2686 38.9509 24.2686C44.5083 24.2686 49.042 28.7826 49.042 34.3158ZM25.618 65.7437C24.7649 65.2583 24.3749 64.7729 24.3749 64.7244C25.2036 54.0947 27.3486 52.3231 31.5654 48.7314L32.6623 47.8092C32.8573 47.9062 33.0766 48.0033 33.296 48.1004L36.8303 52.9541L32.5648 62.7101L36.9766 68.0735C32.3698 67.9036 28.0311 67.127 25.6424 65.7437H25.618ZM52.3813 65.7437C49.9682 67.127 45.5808 67.9036 40.9496 68.0735L45.3614 62.6858L41.0959 52.9298L44.6302 48.0761C44.8495 47.979 45.0933 47.882 45.3126 47.7606L46.4339 48.7071C50.675 52.2746 52.7956 54.0705 53.6244 64.506C53.6244 64.7487 53.2344 65.2098 52.3813 65.7194V65.7437Z" fill="#08BCB8"/>
</g>
<defs>
<clipPath id="clip0_48_1025">
<rect width="78" height="73" fill="white"/>
</clipPath>
</defs>
</svg>

