<svg width="570" height="557" viewBox="0 0 570 557" fill="none" xmlns="http://www.w3.org/2000/svg">
<path d="M536.629 286.223C530.713 336.374 507.849 394.697 462.193 421.48C393.197 461.967 398.981 524.231 264.316 551.302C243.325 555.519 223.395 557.299 204.61 556.952C194.508 556.761 184.728 555.949 175.306 554.563C89.7195 542.043 32.125 482.455 10.9907 410.525C-16.8226 315.922 38.7086 253.992 75.5147 216.672C112.321 179.351 139.275 63.0889 271.448 35.433C291.604 31.2279 312.214 29.0775 332.812 29.5912C379.839 30.75 431.136 46.2206 466.63 78.4997C469.29 80.9248 471.89 83.4455 474.418 86.0379C523.748 136.75 544.715 217.854 536.652 286.235L536.629 286.223Z" fill="#92E3A9"/>
<path opacity="0.7" d="M536.629 286.223C530.713 336.374 507.849 394.697 462.193 421.48C393.197 461.967 398.981 524.231 264.316 551.302C243.325 555.519 223.395 557.299 204.61 556.952C194.508 556.761 184.728 555.949 175.306 554.563C89.7195 542.043 32.125 482.455 10.9907 410.525C-16.8226 315.922 38.7086 253.992 75.5147 216.672C112.321 179.351 139.275 63.0889 271.448 35.433C291.604 31.2279 312.214 29.0775 332.812 29.5912C379.839 30.75 431.136 46.2206 466.63 78.4997C469.29 80.9248 471.89 83.4455 474.418 86.0379C523.748 136.75 544.715 217.854 536.652 286.235L536.629 286.223Z" fill="white"/>
<path d="M569.404 504.926H3.59668" stroke="#263238" stroke-linecap="round" stroke-linejoin="round"/>
<g opacity="0.3">
<path d="M20.4609 368.462C25.0408 370.469 36.2401 370.218 36.252 370.218C36.3713 370.218 33.8428 362.871 33.6281 362.429C31.1712 357.28 23.3949 348.774 17.0737 349.635C12.5177 350.256 9.9892 354.819 11.0149 359.12C12.0645 363.504 16.5609 366.766 20.4609 368.474V368.462Z" fill="black"/>
<path d="M24.3376 400.968C29.0845 401.661 39.0911 398.758 39.8782 398.519C41.4526 404.122 43.5278 409.749 45.937 415.328C47.3086 418.517 48.7995 421.683 50.3261 424.849C49.4197 423.511 48.5848 422.316 48.4536 422.161C44.7205 417.848 34.9882 411.696 29.1083 414.193C24.8743 415.997 23.6339 421.062 25.7569 424.944C27.9276 428.899 33.1277 430.858 37.3378 431.467C41.6076 432.088 50.183 429.783 52.4491 429.15C53.0454 430.356 53.6298 431.563 54.2381 432.769C57.1363 438.539 60.0464 444.298 62.73 450.02C63.6722 452.039 64.5309 454.058 65.4016 456.077C64.5906 454.894 63.8988 453.891 63.7795 453.759C60.0464 449.446 50.3142 443.294 44.4343 445.791C40.2003 447.595 38.9599 452.672 41.0828 456.543C43.2535 460.497 48.4536 462.456 52.6638 463.065C56.7427 463.663 64.674 461.608 67.3695 460.855C68.1924 462.946 69.0273 465.048 69.731 467.115C70.1842 468.537 70.709 469.875 71.0787 471.332C71.4842 472.766 71.8778 474.187 72.2595 475.585C72.9155 478.321 73.6072 481.128 74.1797 483.816C74.5971 485.68 74.9549 487.46 75.3127 489.252C74.3944 487.233 72.5099 483.314 72.3191 483.004C69.2897 478.166 60.5951 470.616 54.4051 472.192C49.9444 473.327 47.9527 478.154 49.4674 482.311C51.0179 486.552 55.8482 489.276 59.9272 490.518C64.4117 491.892 74.3347 490.638 75.5751 490.47C76.1715 493.445 76.7201 496.336 77.1972 499.072C77.555 501.103 77.877 503.05 78.1752 504.926H82.1468C81.7771 502.847 81.3596 500.661 80.9064 498.379C80.3101 495.356 79.6183 492.143 78.8789 488.858C79.6302 488.559 83.8523 486.851 87.6093 484.748C90.8772 488.296 99.2498 492.442 100.335 492.967C99.2021 495.775 98.0571 498.486 96.948 501.043C96.3635 502.393 95.7911 503.671 95.2305 504.937H99.4287C99.7627 504.137 100.097 503.349 100.431 502.524C101.599 499.681 102.792 496.623 103.985 493.457C105.189 493.708 115.005 495.703 119.585 494.675C123.736 493.732 128.769 491.378 130.629 487.269C132.454 483.243 130.82 478.285 126.455 476.816C120.408 474.785 111.165 481.666 107.789 486.253C107.587 486.528 105.75 489.706 104.629 491.737C105.106 490.446 105.595 489.192 106.072 487.854C107.038 485.214 107.921 482.562 108.887 479.707C109.304 478.309 109.722 476.899 110.151 475.478C110.604 474.068 110.902 472.539 111.284 471.046C112.107 467.581 112.775 464.033 113.359 460.449C115.661 461.285 123.903 464.164 128.16 463.854C132.406 463.555 137.738 461.99 140.195 458.215C142.604 454.512 141.745 449.363 137.654 447.248C131.977 444.322 121.815 449.721 117.772 453.747C117.522 453.998 114.945 457.212 113.562 459.004C113.896 456.841 114.254 454.691 114.516 452.493C115.303 446.149 115.9 439.71 116.52 433.295C116.711 431.324 116.925 429.365 117.128 427.405C117.951 427.716 127.659 431.336 132.442 431.001C136.688 430.703 142.019 429.138 144.476 425.363C146.885 421.659 146.027 416.51 141.936 414.396C136.259 411.469 126.097 416.869 122.054 420.895C121.744 421.193 118.046 425.829 117.164 427.059C117.617 422.734 118.118 418.446 118.774 414.229C119.669 408.411 120.885 402.748 122.447 397.348C122.829 397.492 132.943 401.315 137.845 400.98C142.091 400.681 147.422 399.116 149.879 395.341C152.288 391.638 151.43 386.489 147.339 384.375C141.662 381.448 131.5 386.847 127.457 390.873C127.135 391.184 123.163 396.178 122.507 397.133C122.602 396.811 122.662 396.464 122.758 396.154C124.511 390.407 126.932 385.067 129.437 380.181C130.892 377.338 132.43 374.698 133.993 372.165C135.805 373.073 144.13 377.123 148.567 377.302C152.825 377.47 158.287 376.502 161.15 373.014C163.953 369.597 163.666 364.376 159.826 361.832C154.507 358.296 143.808 362.549 139.348 366.109C139.109 366.3 136.855 368.546 135.245 370.194C135.972 369.059 136.688 367.877 137.404 366.813C140.075 362.787 142.771 359.263 145.18 356.157C146.563 354.401 147.852 352.848 149.068 351.403C151.31 351.367 160.339 351.092 164.287 349.228C168.139 347.412 172.54 344.032 173.482 339.623C174.389 335.299 171.741 330.807 167.161 330.305C160.816 329.624 153.278 338.333 150.952 343.542C150.75 343.996 148.424 351.403 148.543 351.403C148.543 351.403 148.651 351.403 148.674 351.403C147.47 352.764 146.206 354.246 144.846 355.894C142.365 358.953 139.586 362.417 136.819 366.407C134.04 370.385 131.142 374.782 128.494 379.692C125.835 384.613 123.294 389.918 121.386 395.724C121.362 395.783 121.35 395.855 121.326 395.927C121.362 394.051 121.279 388.819 121.219 388.412C120.491 382.75 115.745 372.249 109.471 371.078C104.951 370.242 101.122 373.79 100.765 378.198C100.395 382.702 103.651 387.194 106.823 390.037C110.401 393.239 120.336 396.345 121.135 396.584C119.358 402.127 117.999 407.969 116.937 413.954C116.329 417.37 115.816 420.835 115.351 424.323C115.327 422.699 115.291 421.253 115.268 421.05C114.54 415.387 109.793 404.887 103.52 403.716C98.9994 402.88 95.1709 406.428 94.8131 410.836C94.4433 415.34 97.6993 419.831 100.872 422.675C104.092 425.554 112.512 428.373 114.755 429.09C114.588 430.428 114.409 431.766 114.254 433.092C113.49 439.507 112.751 445.91 111.833 452.17C111.511 454.38 111.117 456.543 110.723 458.705C110.7 457.271 110.664 456.053 110.652 455.874C109.924 450.211 105.177 439.71 98.904 438.539C94.3837 437.703 90.5552 441.251 90.1855 445.659C89.8157 450.151 93.0717 454.655 96.2443 457.498C99.3214 460.246 107.062 462.922 109.722 463.782C109.256 465.992 108.791 468.19 108.243 470.305C107.837 471.738 107.539 473.148 107.05 474.57C106.597 475.979 106.144 477.389 105.69 478.775C104.736 481.415 103.758 484.139 102.756 486.695C102.076 488.475 101.397 490.16 100.705 491.856C101.051 489.658 101.635 485.357 101.647 484.987C101.731 481.2 100.395 475.036 97.7113 470.699C97.7232 470.138 97.6993 469.576 97.6039 469.027C96.9002 464.666 92.8094 461.429 88.3726 462.611C82.2064 464.26 78.2944 475.095 78.0082 480.806C77.9963 481.14 78.211 484.808 78.3899 487.125C78.0798 485.787 77.7935 484.473 77.4596 483.099C76.8155 480.364 76.088 477.664 75.3127 474.737C74.8953 473.339 74.4659 471.93 74.0366 470.508C73.643 469.086 73.0467 467.641 72.5457 466.183C71.3292 462.838 69.9218 459.517 68.4429 456.196C70.8283 455.623 79.2844 453.46 82.6716 450.856C86.0469 448.264 89.6249 444.011 89.6011 439.507C89.5653 435.087 86.0111 431.264 81.4431 431.766C75.0981 432.459 69.5879 442.577 68.4429 448.168C68.3713 448.515 67.9897 452.624 67.8346 454.882C66.9282 452.899 66.0337 450.904 65.0438 448.921C62.2052 443.199 59.1639 437.5 56.1464 431.79C55.2161 430.046 54.3216 428.289 53.4151 426.545C54.262 426.354 64.3639 424.001 68.1686 421.086C71.5439 418.493 75.1219 414.241 75.0981 409.737C75.0623 405.317 71.5081 401.494 66.9401 401.995C60.5951 402.688 55.0849 412.807 53.9399 418.398C53.8564 418.816 53.3197 424.729 53.2601 426.235C51.2564 422.388 49.3004 418.517 47.5352 414.635C45.0783 409.283 42.9673 403.895 41.3094 398.519C41.703 398.424 52.2582 396.022 56.1464 393.036C59.5217 390.443 63.1116 386.19 63.0759 381.687C63.0401 377.266 59.4859 373.444 54.9179 373.945C48.5729 374.638 43.0627 384.757 41.9177 390.348C41.8223 390.79 41.2617 397.145 41.2379 398.304C41.1425 397.982 40.9994 397.671 40.9039 397.348C39.1984 391.59 38.28 385.796 37.6718 380.337C37.314 377.159 37.1589 374.113 37.0635 371.138C39.0791 370.887 48.2508 369.669 52.0436 367.363C55.6812 365.153 59.7125 361.33 60.1776 356.838C60.6309 352.442 57.518 348.249 52.9142 348.237C46.5334 348.225 39.9498 357.686 38.1966 363.11C38.1011 363.409 37.4571 366.515 37.0277 368.785C37.0039 367.447 36.9562 366.049 36.9681 364.771C36.9681 359.932 37.2782 355.512 37.5883 351.594C37.7791 349.372 37.9938 347.353 38.2204 345.477C40.0691 344.199 47.4517 338.99 49.7178 335.251C51.9362 331.607 53.7491 326.351 52.0913 322.158C50.4692 318.048 45.782 315.767 41.6911 317.881C36.0259 320.82 34.535 332.253 35.4653 337.879C35.5488 338.369 37.6837 345.824 37.791 345.764C37.791 345.764 37.8865 345.704 37.8984 345.692C37.6479 347.496 37.3975 349.431 37.1708 351.546C36.7773 355.464 36.3837 359.896 36.2644 364.747C36.1332 369.597 36.1332 374.865 36.6341 380.42C37.1231 385.987 37.9342 391.817 39.5324 397.719C39.5562 397.79 39.5801 397.85 39.592 397.922C38.5901 396.345 35.6323 392.02 35.3699 391.71C31.6368 387.397 21.9045 381.245 16.0246 383.741C11.7906 385.545 10.5502 390.623 12.6732 394.493C14.8439 398.447 20.044 400.407 24.2541 401.016L24.3376 400.968Z" fill="black"/>
<path d="M133.777 370.935C133.872 370.995 135.816 363.481 135.888 362.991C136.675 357.34 134.874 345.943 129.126 343.172C124.987 341.165 120.359 343.578 118.845 347.735C117.306 351.976 119.262 357.173 121.576 360.757C124.295 364.962 133.777 370.935 133.777 370.947V370.935Z" fill="black"/>
</g>
<g opacity="0.3">
<path d="M245.007 51.441C249.587 53.448 260.786 53.1971 260.798 53.1971C260.917 53.1971 258.389 45.8501 258.174 45.4081C255.717 40.2592 247.941 31.7534 241.62 32.6135C237.064 33.2347 234.535 37.7982 235.561 42.0989C236.61 46.4833 241.107 49.7446 245.007 51.453V51.441Z" fill="black"/>
<path d="M248.871 83.9471C253.618 84.64 263.624 81.737 264.411 81.4981C265.986 87.101 268.061 92.7277 270.47 98.3067C271.842 101.496 273.333 104.662 274.859 107.828C273.953 106.49 273.118 105.295 272.987 105.14C269.254 100.827 259.521 94.675 253.642 97.1718C249.408 98.9757 248.167 104.041 250.29 107.924C252.461 111.878 257.661 113.837 261.871 114.446C266.141 115.067 274.716 112.762 276.982 112.129C277.579 113.335 278.163 114.542 278.771 115.748C281.67 121.518 284.58 127.277 287.263 132.999C288.205 135.018 289.064 137.037 289.935 139.056C289.124 137.873 288.432 136.87 288.313 136.738C284.58 132.426 274.847 126.273 268.967 128.77C264.733 130.574 263.493 135.651 265.616 139.522C267.787 143.476 272.987 145.435 277.197 146.044C281.276 146.642 289.207 144.587 291.903 143.834C292.726 145.925 293.561 148.028 294.264 150.094C294.717 151.516 295.242 152.854 295.612 154.311C296.017 155.745 296.411 157.166 296.793 158.564C297.449 161.3 298.14 164.107 298.713 166.795C299.13 168.659 299.488 170.439 299.846 172.231C298.928 170.212 297.043 166.294 296.852 165.983C293.823 161.145 285.128 153.595 278.938 155.171C274.478 156.306 272.486 161.133 274.001 165.29C275.551 169.531 280.381 172.255 284.46 173.497C288.945 174.871 298.868 173.617 300.108 173.449C300.705 176.424 301.253 179.315 301.73 182.051C302.088 184.082 302.41 186.029 302.708 187.905H306.68C306.31 185.826 305.893 183.64 305.44 181.358C304.843 178.335 304.152 175.122 303.412 171.837C304.163 171.538 308.386 169.83 312.143 167.727C315.41 171.275 323.783 175.421 324.868 175.946C323.735 178.754 322.59 181.465 321.481 184.022C320.897 185.372 320.324 186.65 319.764 187.916H323.962C324.296 187.116 324.63 186.328 324.964 185.503C326.133 182.66 327.325 179.602 328.518 176.436C329.723 176.687 339.538 178.682 344.118 177.655C348.269 176.711 353.302 174.357 355.162 170.248C356.987 166.222 355.353 161.264 350.988 159.795C344.941 157.764 335.71 164.645 332.323 169.232C332.12 169.507 330.283 172.685 329.162 174.716C329.639 173.426 330.128 172.171 330.605 170.833C331.571 168.193 332.454 165.541 333.42 162.686C333.837 161.288 334.255 159.878 334.684 158.457C335.137 157.047 335.436 155.518 335.817 154.025C336.64 150.56 337.308 147.012 337.892 143.428C340.194 144.264 348.436 147.143 352.694 146.833C356.94 146.534 362.271 144.969 364.728 141.194C367.137 137.491 366.278 132.342 362.187 130.227C356.51 127.301 346.349 132.7 342.305 136.726C342.055 136.977 339.479 140.191 338.095 141.983C338.429 139.82 338.787 137.67 339.049 135.472C339.837 129.128 340.433 122.689 341.053 116.274C341.244 114.303 341.459 112.344 341.661 110.384C342.484 110.695 352.193 114.315 356.975 113.98C361.221 113.682 366.553 112.117 369.009 108.342C371.419 104.638 370.56 99.4894 366.469 97.3749C360.792 94.448 350.63 99.8478 346.587 103.874C346.289 104.172 342.58 108.808 341.697 110.038C342.15 105.713 342.651 101.425 343.307 97.2076C344.202 91.3897 345.418 85.7271 346.981 80.3274C347.362 80.4707 357.476 84.2936 362.378 83.9591C366.624 83.6604 371.955 82.0954 374.412 78.3204C376.822 74.617 375.963 69.4681 371.872 67.3536C366.195 64.4267 356.033 69.8265 351.99 73.8524C351.668 74.163 347.696 79.1566 347.04 80.1123C347.136 79.7898 347.195 79.4433 347.291 79.1327C349.044 73.3865 351.465 68.0465 353.97 63.1604C355.425 60.3172 356.963 57.677 358.526 55.1444C360.339 56.0523 368.664 60.1021 373.1 60.2813C377.358 60.4486 382.821 59.4809 385.683 55.9926C388.486 52.5759 388.2 47.3554 384.359 44.8108C379.04 41.2747 368.342 45.5276 363.881 49.0876C363.642 49.2787 361.388 51.5246 359.778 53.1732C360.506 52.0383 361.221 50.8557 361.937 49.7924C364.609 45.7665 367.304 42.2423 369.713 39.1362C371.097 37.3801 372.385 35.8271 373.601 34.3816C375.844 34.3458 384.872 34.071 388.82 32.2073C392.672 30.3915 397.085 27.0107 398.015 22.6025C398.922 18.2779 396.274 13.786 391.694 13.2843C385.349 12.6033 377.811 21.3123 375.486 26.5209C375.283 26.9748 372.957 34.3816 373.077 34.3816C373.077 34.3816 373.184 34.3816 373.208 34.3816C372.003 35.7435 370.739 37.2248 369.379 38.8734C366.898 41.9317 364.119 45.3962 361.352 49.3862C358.574 53.3644 355.675 57.7607 353.028 62.6706C350.368 67.5925 347.827 72.8967 345.919 78.7027C345.895 78.7624 345.883 78.8341 345.86 78.9058C345.895 77.0302 345.812 71.7977 345.752 71.3915C345.025 65.7289 340.278 55.228 334.004 54.0573C329.484 53.221 325.656 56.7691 325.298 61.1773C324.928 65.6811 328.184 70.173 331.357 73.0162C334.935 76.2178 344.87 79.3239 345.669 79.5628C343.892 85.1059 342.532 90.9477 341.471 96.9328C340.862 100.35 340.349 103.814 339.884 107.302C339.86 105.678 339.825 104.232 339.801 104.029C339.073 98.3664 334.326 87.8655 328.053 86.6948C323.533 85.8585 319.704 89.4066 319.346 93.8148C318.977 98.3186 322.233 102.81 325.405 105.654C328.625 108.533 337.046 111.352 339.288 112.069C339.121 113.407 338.942 114.733 338.787 116.071C338.024 122.486 337.284 128.889 336.366 135.149C336.044 137.359 335.65 139.522 335.257 141.684C335.233 140.25 335.197 139.032 335.185 138.853C334.458 133.19 329.711 122.689 323.437 121.518C318.917 120.682 315.088 124.23 314.719 128.639C314.349 133.13 317.605 137.634 320.778 140.477C323.855 143.225 331.595 145.901 334.255 146.761C333.79 148.971 333.324 151.169 332.776 153.284C332.37 154.717 332.072 156.127 331.583 157.549C331.13 158.958 330.677 160.368 330.224 161.754C329.269 164.394 328.291 167.118 327.29 169.674C326.61 171.454 325.93 173.139 325.238 174.835C325.584 172.637 326.168 168.336 326.18 167.966C326.264 164.179 324.928 158.015 322.245 153.678C322.256 153.117 322.233 152.555 322.137 152.006C321.433 147.645 317.343 144.408 312.906 145.59C306.74 147.239 302.828 158.074 302.541 163.785C302.529 164.119 302.744 167.787 302.923 170.104C302.613 168.766 302.327 167.452 301.993 166.078C301.349 163.343 300.621 160.643 299.846 157.728C299.429 156.33 298.999 154.921 298.57 153.499C298.176 152.077 297.58 150.632 297.079 149.174C295.862 145.829 294.455 142.508 292.976 139.187C295.361 138.614 303.818 136.451 307.205 133.847C310.58 131.255 314.158 127.002 314.134 122.498C314.098 118.078 310.544 114.255 305.976 114.757C299.631 115.45 294.121 125.568 292.976 131.159C292.905 131.506 292.523 135.615 292.368 137.873C291.461 135.89 290.567 133.895 289.577 131.912C286.738 126.19 283.697 120.491 280.68 114.781C279.749 113.037 278.855 111.28 277.948 109.536C278.795 109.345 288.897 106.992 292.702 104.077C296.077 101.484 299.655 97.2315 299.631 92.7277C299.596 88.3076 296.041 84.4847 291.473 84.9865C285.128 85.6794 279.618 95.7979 278.473 101.389C278.39 101.807 277.853 107.72 277.793 109.226C275.79 105.379 273.834 101.52 272.068 97.6257C269.612 92.2738 267.5 86.8859 265.843 81.5101C266.236 81.4145 276.791 79.0133 280.68 76.0267C284.055 73.4343 287.633 69.1814 287.609 64.6776C287.573 60.2575 284.019 56.4346 279.451 56.9364C273.106 57.6292 267.596 67.7478 266.451 73.3387C266.356 73.7808 265.795 80.1362 265.771 81.295C265.676 80.9725 265.533 80.6619 265.437 80.3393C263.732 74.5812 262.813 68.7872 262.205 63.3277C261.847 60.1499 261.692 57.1036 261.597 54.129C263.612 53.8781 272.784 52.6596 276.577 50.3539C280.214 48.1438 284.246 44.321 284.711 39.8291C285.164 35.4329 282.051 31.2397 277.447 31.2277C271.067 31.2158 264.483 40.6773 262.73 46.101C262.634 46.3997 261.99 49.5057 261.561 51.7755C261.537 50.4375 261.489 49.0398 261.501 47.7615C261.501 42.9233 261.811 38.5031 262.121 34.5847C262.312 32.3627 262.527 30.3437 262.754 28.4681C264.602 27.1899 271.985 21.9812 274.251 18.242C276.469 14.5984 278.282 9.34198 276.624 5.1488C275.002 1.03924 270.315 -1.24252 266.224 0.87199C260.559 3.8108 259.068 15.2435 259.999 20.8702C260.082 21.36 262.217 28.8146 262.324 28.7548C262.324 28.7548 262.42 28.6951 262.432 28.6832C262.181 30.4871 261.931 32.4224 261.704 34.5369C261.31 38.4553 260.917 42.8874 260.798 47.7376C260.666 52.5879 260.666 57.8562 261.167 63.4113C261.656 68.9783 262.467 74.8081 264.066 80.7097C264.089 80.7813 264.113 80.8411 264.125 80.9128C263.123 79.3358 260.166 75.0112 259.903 74.7006C256.17 70.388 246.438 64.2356 240.558 66.7324C236.324 68.5363 235.083 73.6135 237.206 77.4841C239.377 81.4384 244.577 83.3976 248.787 84.0069L248.871 83.9471Z" fill="black"/>
<path d="M358.311 53.9138C358.407 53.9735 360.351 46.4593 360.422 45.9695C361.209 40.3188 359.408 28.922 353.66 26.1504C349.521 24.1434 344.894 26.5566 343.379 30.7139C341.84 34.9549 343.796 40.1516 346.11 43.7355C348.829 47.9406 358.311 53.9138 358.311 53.9258V53.9138Z" fill="black"/>
</g>
<path d="M286.31 51.9189H62.7179C54.9519 51.9189 48.6562 58.2249 48.6562 66.0037V365.464C48.6562 373.242 54.9519 379.548 62.7179 379.548H286.31C294.076 379.548 300.371 373.242 300.371 365.464V66.0037C300.371 58.2249 294.076 51.9189 286.31 51.9189Z" fill="#263238"/>
<path d="M288.337 71.2959H60.7021V364.006H288.337V71.2959Z" fill="white" stroke="#263238" stroke-linecap="round" stroke-linejoin="round"/>
<path d="M128.291 115.127H220.748" stroke="#263238" stroke-linecap="round" stroke-linejoin="round"/>
<path d="M85.7718 178.156C94.2229 178.156 101.074 171.294 101.074 162.829C101.074 154.364 94.2229 147.502 85.7718 147.502C77.3207 147.502 70.4697 154.364 70.4697 162.829C70.4697 171.294 77.3207 178.156 85.7718 178.156Z" stroke="#263238" stroke-linecap="round" stroke-linejoin="round"/>
<path d="M108.087 164.095H264.28" stroke="#263238" stroke-linecap="round" stroke-linejoin="round"/>
<path d="M79.4033 158.994L85.1401 167.93L103.627 143.667" stroke="#92E3A9" stroke-width="4" stroke-linecap="round" stroke-linejoin="round"/>
<path d="M89.2833 215.425C97.5084 213.481 102.602 205.226 100.661 196.987C98.7199 188.749 90.4784 183.646 82.2532 185.591C74.0281 187.535 68.9341 195.79 70.8754 204.029C72.8167 212.268 81.0582 217.37 89.2833 215.425Z" stroke="#263238" stroke-linecap="round" stroke-linejoin="round"/>
<path d="M108.088 201.774H264.281" stroke="#263238" stroke-linecap="round" stroke-linejoin="round"/>
<path d="M79.4033 196.661L85.1401 205.609L103.627 181.346" stroke="#92E3A9" stroke-width="4" stroke-linecap="round" stroke-linejoin="round"/>
<path d="M89.2775 253.1C97.5026 251.156 102.597 242.901 100.655 234.662C98.714 226.424 90.4725 221.321 82.2474 223.266C74.0223 225.21 68.9282 233.465 70.8695 241.704C72.8108 249.943 81.0524 255.045 89.2775 253.1Z" stroke="#263238" stroke-linecap="round" stroke-linejoin="round"/>
<path d="M108.088 239.453H264.281" stroke="#263238" stroke-linecap="round" stroke-linejoin="round"/>
<path d="M79.4033 234.34L85.1401 243.276L103.627 219.013" stroke="#92E3A9" stroke-width="4" stroke-linecap="round" stroke-linejoin="round"/>
<path d="M96.5944 286.698C102.57 280.712 102.57 271.007 96.5944 265.022C90.6186 259.036 80.9298 259.036 74.954 265.022C68.9782 271.007 68.9782 280.712 74.954 286.698C80.9298 292.683 90.6186 292.683 96.5944 286.698Z" stroke="#263238" stroke-linecap="round" stroke-linejoin="round"/>
<path d="M108.088 277.12H264.281" stroke="#263238" stroke-linecap="round" stroke-linejoin="round"/>
<path d="M79.4043 272.019L85.1411 280.955L103.628 256.692" stroke="#92E3A9" stroke-width="4" stroke-linecap="round" stroke-linejoin="round"/>
<path d="M85.7718 328.848C94.2229 328.848 101.074 321.986 101.074 313.521C101.074 305.056 94.2229 298.193 85.7718 298.193C77.3207 298.193 70.4697 305.056 70.4697 313.521C70.4697 321.986 77.3207 328.848 85.7718 328.848Z" stroke="#263238" stroke-linecap="round" stroke-linejoin="round"/>
<path d="M108.087 314.799H264.28" stroke="#263238" stroke-linecap="round" stroke-linejoin="round"/>
<path d="M79.4033 309.686L85.1401 318.634L103.627 294.371" stroke="#92E3A9" stroke-width="4" stroke-linecap="round" stroke-linejoin="round"/>
<path d="M204.492 45.3126C199.554 45.3126 196.835 39.8769 199.459 35.6838C202.154 31.3711 203.383 26.0311 202.393 20.3805C200.926 11.8985 194.235 4.89795 185.827 3.14183C171.884 0.226912 159.611 10.7995 159.611 24.2511C159.611 28.5996 160.9 32.6374 163.106 36.0183C165.706 40.0084 162.629 45.3126 157.858 45.3126H120.36L130.498 74.4737H231.852L241.99 45.3126H204.492ZM181.175 32.8883C177.013 32.8883 173.625 29.5075 173.625 25.3263C173.625 21.145 177.001 17.7642 181.175 17.7642C185.349 17.7642 188.725 21.145 188.725 25.3263C188.725 29.5075 185.349 32.8883 181.175 32.8883Z" fill="white" stroke="#263238" stroke-linecap="round" stroke-linejoin="round"/>
<path d="M303.03 504.926H434.75V386.8H303.03V504.926Z" fill="#92E3A9" stroke="#263238" stroke-linecap="round" stroke-linejoin="round"/>
<path d="M303.031 504.926H345.442V386.8H303.031V504.926Z" fill="#263238" stroke="#263238" stroke-linecap="round" stroke-linejoin="round"/>
<path d="M318.547 419.008H329.925V386.788H318.547V419.008Z" fill="white" stroke="#263238" stroke-linecap="round" stroke-linejoin="round"/>
<path d="M407.402 411.183H427.021V399.141H407.402V411.183Z" stroke="#263238" stroke-linecap="round" stroke-linejoin="round"/>
<path d="M210.061 504.926H341.78V386.8H210.061L210.061 504.926Z" fill="#92E3A9" stroke="#263238" stroke-linecap="round" stroke-linejoin="round"/>
<path d="M210.073 504.926H252.484L252.484 386.8H210.073V504.926Z" fill="#263238" stroke="#263238" stroke-linecap="round" stroke-linejoin="round"/>
<path d="M225.59 419.008H236.968V386.788H225.59V419.008Z" fill="white" stroke="#263238" stroke-linecap="round" stroke-linejoin="round"/>
<path d="M313.43 411.183H333.05V399.141H313.43V411.183Z" stroke="#263238" stroke-linecap="round" stroke-linejoin="round"/>
<path d="M115.66 504.926H247.38L247.38 386.8H115.66L115.66 504.926Z" fill="#92E3A9" stroke="#263238" stroke-linecap="round" stroke-linejoin="round"/>
<path d="M115.672 504.926H158.084L158.084 386.8H115.672L115.672 504.926Z" fill="#263238" stroke="#263238" stroke-linecap="round" stroke-linejoin="round"/>
<path d="M131.189 419.008H142.567V386.788H131.189V419.008Z" fill="white" stroke="#263238" stroke-linecap="round" stroke-linejoin="round"/>
<path d="M221.034 411.183H240.653V399.141H221.034V411.183Z" stroke="#263238" stroke-linecap="round" stroke-linejoin="round"/>
<path d="M257.911 386.645H389.631V268.519H257.911V386.645Z" fill="#92E3A9" stroke="#263238" stroke-linecap="round" stroke-linejoin="round"/>
<path d="M257.923 386.645H300.335V268.519H257.923V386.645Z" fill="#263238" stroke="#263238" stroke-linecap="round" stroke-linejoin="round"/>
<path d="M273.44 300.738H284.818V268.519H273.44V300.738Z" fill="white" stroke="#263238" stroke-linecap="round" stroke-linejoin="round"/>
<path d="M371.347 337.641H384.634V269.809H371.347V337.641Z" stroke="#263238" stroke-linecap="round" stroke-linejoin="round"/>
<path d="M224.337 268.316H356.057V150.19H224.337L224.337 268.316Z" fill="#92E3A9" stroke="#263238" stroke-linecap="round" stroke-linejoin="round"/>
<path d="M224.337 268.316H266.749V150.19H224.337V268.316Z" fill="#263238" stroke="#263238" stroke-linecap="round" stroke-linejoin="round"/>
<path d="M239.853 182.409H251.231V150.19H239.853V182.409Z" fill="white" stroke="#263238" stroke-linecap="round" stroke-linejoin="round"/>
<path d="M336.532 219.24H349.818V151.408H336.532V219.24Z" stroke="#263238" stroke-linecap="round" stroke-linejoin="round"/>
<path d="M161.781 386.645H293.501V268.519H161.781L161.781 386.645Z" fill="#92E3A9" stroke="#263238" stroke-linecap="round" stroke-linejoin="round"/>
<path d="M161.793 386.645H204.205L204.205 268.519H161.793V386.645Z" fill="#263238" stroke="#263238" stroke-linecap="round" stroke-linejoin="round"/>
<path d="M177.31 300.738H188.688V268.519H177.31V300.738Z" fill="white" stroke="#263238" stroke-linecap="round" stroke-linejoin="round"/>
<path d="M272.605 337.641H285.892V269.809H272.605V337.641Z" stroke="#263238" stroke-linecap="round" stroke-linejoin="round"/>
<path d="M421.917 239.382C422.096 238.677 422.859 238.307 423.527 238.605L431.136 241.998L422.99 234.293C422.537 233.862 422.466 233.17 422.823 232.668C423.205 232.118 423.944 231.975 424.505 232.321L433.379 237.876L428.226 231.557C427.749 230.971 427.928 230.087 428.608 229.741C429.037 229.526 429.55 229.586 429.908 229.896L440.129 238.569L439.163 234.782C438.948 233.934 439.521 233.086 440.38 232.966C441.047 232.871 441.692 233.241 441.942 233.874C442.598 235.523 443.85 238.629 444.339 239.656C445.019 241.066 445.949 244.256 445.866 245.427C445.782 246.597 445.782 249.321 445.782 249.321L464.949 264.397L466.428 262.641L471.592 267.563L471.449 269.487L476.148 273.082C476.148 273.082 507.73 257.027 511.833 256.74C515.948 256.453 521.649 263.693 519.18 270.932C516.711 278.172 474.943 289.58 473.572 289.676C472.2 289.772 442.073 254.53 442.073 254.53C442.073 254.53 436.957 252.594 434.714 251.268C432.842 250.157 425.233 247.111 422.799 246.155C422.37 245.988 422.167 245.522 422.31 245.092C422.454 244.662 422.895 244.423 423.324 244.519L429.645 246.024L422.334 240.648C421.953 240.361 421.774 239.872 421.893 239.418L421.917 239.382Z" fill="#263238" stroke="#263238" stroke-linecap="round" stroke-linejoin="round"/>
<path d="M349.902 413.763L360.398 405.353L373.243 395.067L410.622 365.105L410.908 365.296L410.944 365.32L410.968 365.344L447.869 390.933L461.024 400.072L472.021 407.682L427.486 216.421L424.934 216.492L421.654 216.588L377.561 217.783L349.902 413.763Z" fill="#263238" stroke="#263238" stroke-linecap="round" stroke-linejoin="round"/>
<path d="M410.717 365.141L410.741 365.105L410.956 365.345L410.717 365.141Z" fill="white" stroke="#263238" stroke-linecap="round" stroke-linejoin="round"/>
<path d="M360.397 405.353L373.243 395.067L389.392 217.782L410.967 216.875L382.76 217.782L360.397 405.353Z" fill="white" stroke="#263238" stroke-linecap="round" stroke-linejoin="round"/>
<path d="M421.653 216.54V216.588L447.868 390.933L461.024 400.072L424.933 216.492L424.921 216.421L421.653 216.54Z" fill="white" stroke="#263238" stroke-linecap="round" stroke-linejoin="round"/>
<path d="M327.301 196.876C327.301 194.248 322.9 191.429 323.163 188.872C323.437 186.268 328.327 184.416 328.852 181.896C329.388 179.339 325.679 175.66 326.466 173.211C327.265 170.726 332.442 169.937 333.491 167.584C334.553 165.207 331.69 160.822 332.978 158.588C334.278 156.342 339.502 156.641 341.017 154.55C342.544 152.448 340.647 147.574 342.377 145.65C344.106 143.727 349.151 145.101 351.083 143.369C353.004 141.636 352.157 136.464 354.256 134.934C356.343 133.417 360.994 135.806 363.237 134.504C365.467 133.214 365.717 127.982 368.091 126.918C370.44 125.867 374.496 129.176 376.964 128.376C379.409 127.575 380.745 122.51 383.298 121.973C385.814 121.435 389.07 125.533 391.67 125.258C394.223 124.995 396.572 120.312 399.196 120.312C401.82 120.312 404.169 124.995 406.722 125.258C409.322 125.533 412.59 121.435 415.094 121.973C417.647 122.51 418.971 127.575 421.428 128.376C423.908 129.176 427.951 125.867 430.301 126.918C432.674 127.982 432.913 133.214 435.155 134.504C437.398 135.806 442.049 133.405 444.136 134.934C446.235 136.464 445.388 141.636 447.309 143.369C449.229 145.101 454.274 143.727 456.015 145.65C457.745 147.574 455.848 152.46 457.375 154.55C458.89 156.641 464.114 156.342 465.414 158.588C466.702 160.822 463.839 165.207 464.901 167.584C465.95 169.937 471.115 170.738 471.926 173.211C472.725 175.66 469.004 179.339 469.54 181.896C470.077 184.416 474.967 186.268 475.229 188.872C475.492 191.429 471.091 194.248 471.091 196.876C471.091 199.505 475.492 202.324 475.229 204.88C474.955 207.485 470.065 209.336 469.54 211.857C469.004 214.414 472.713 218.093 471.926 220.542C471.127 223.027 465.95 223.815 464.901 226.169C463.839 228.546 466.702 232.931 465.414 235.165C464.114 237.41 458.89 237.112 457.375 239.202C455.848 241.305 457.745 246.179 456.015 248.102C454.286 250.026 449.241 248.652 447.309 250.384C445.388 252.116 446.235 257.289 444.136 258.818C442.049 260.347 437.398 257.946 435.155 259.248C432.925 260.539 432.674 265.771 430.301 266.834C427.951 267.886 423.896 264.577 421.428 265.377C418.983 266.177 417.647 271.243 415.094 271.78C412.578 272.318 409.322 268.22 406.722 268.495C404.169 268.758 401.82 273.441 399.196 273.441C396.572 273.441 394.223 268.758 391.682 268.495C389.082 268.22 385.814 272.318 383.309 271.78C380.757 271.243 379.433 266.177 376.976 265.377C374.496 264.577 370.452 267.886 368.103 266.834C365.729 265.771 365.491 260.539 363.249 259.248C361.006 257.946 356.355 260.347 354.268 258.818C352.169 257.289 353.015 252.116 351.095 250.384C349.175 248.652 344.13 250.026 342.389 248.102C340.659 246.179 342.556 241.293 341.029 239.202C339.514 237.112 334.29 237.41 332.99 235.165C331.702 232.931 334.565 228.546 333.503 226.169C332.454 223.815 327.289 223.015 326.478 220.542C325.679 218.093 329.4 214.414 328.864 211.857C328.327 209.336 323.437 207.485 323.175 204.88C322.912 202.324 327.313 199.505 327.313 196.876H327.301Z" fill="white" stroke="#263238" stroke-linecap="round" stroke-linejoin="round"/>
<path d="M399.196 258.102C432.954 258.102 460.321 230.69 460.321 196.876C460.321 163.063 432.954 135.651 399.196 135.651C365.438 135.651 338.071 163.063 338.071 196.876C338.071 230.69 365.438 258.102 399.196 258.102Z" fill="#92E3A9" stroke="#263238" stroke-linecap="round" stroke-linejoin="round"/>
<path d="M451.875 209.59C458.886 180.45 440.986 151.135 411.894 144.112C382.802 137.089 353.535 155.019 346.524 184.158C339.513 213.298 357.413 242.613 386.504 249.636C415.596 256.658 444.863 238.729 451.875 209.59Z" fill="#263238"/>
<path d="M530.904 398.483C530.904 398.483 529.866 407.288 531.166 410.908C532.466 414.527 540.731 439.4 542.019 461.405C543.308 483.41 544.608 503.624 543.832 504.663C543.057 505.702 538.406 505.177 538.406 505.177H522.901C522.901 505.177 521.613 504.137 522.388 502.847C523.163 501.557 530.665 495.858 531.691 494.042C532.728 492.227 534.017 489.646 534.017 488.87C534.017 488.093 532.204 469.17 526.002 456.746C519.8 444.322 511.785 413.763 511.01 402.629L530.916 398.483H530.904Z" fill="white" stroke="#263238" stroke-linecap="round" stroke-linejoin="round"/>
<path d="M522.376 502.847C522.817 502.106 525.441 499.944 527.803 497.877V500.506H544.047C544.095 502.907 544.035 504.376 543.832 504.651C543.057 505.69 538.406 505.165 538.406 505.165H522.901C522.901 505.165 521.613 504.125 522.388 502.835L522.376 502.847Z" fill="#92E3A9" stroke="#263238" stroke-linecap="round" stroke-linejoin="round"/>
<path d="M514.361 399.774C514.361 399.774 510.747 425.673 513.323 433.439C515.911 441.204 514.874 455.193 511.26 469.947C507.646 484.701 504.795 494.031 504.795 494.807C504.795 495.584 504.795 502.572 504.02 503.874C503.245 505.165 480.5 504.914 478.95 504.914C477.4 504.914 475.849 503.361 477.137 501.808C478.425 500.255 485.414 498.558 490.066 496.372C494.455 494.305 494.717 493.78 494.717 493.78C494.717 493.78 497.305 463.484 496.268 450.02C495.23 436.557 489.529 408.59 490.567 399.272L514.361 399.786V399.774Z" fill="white" stroke="#263238" stroke-linecap="round" stroke-linejoin="round"/>
<path d="M478.95 504.902C477.4 504.902 475.849 503.349 477.137 501.796C478.175 500.542 482.91 499.204 487.144 497.579L488.002 499.466L504.748 498.212C504.664 500.47 504.485 503.122 504.032 503.875C503.257 505.165 480.512 504.914 478.962 504.914L478.95 504.902Z" fill="#92E3A9" stroke="#263238" stroke-linecap="round" stroke-linejoin="round"/>
<path d="M528.805 311.944C528.805 311.944 537.631 331.166 538.406 342.813C539.181 354.461 534.267 367.148 534.267 367.148L537.368 400.55C537.368 400.55 527.028 407.025 509.71 406.762C492.392 406.499 483.864 403.656 483.864 403.656C483.864 403.656 481.801 363.003 487.228 343.327C492.655 323.651 490.722 312.912 490.722 312.912C490.722 312.912 514.803 313.951 528.805 311.944Z" fill="#263238" stroke="#263238" stroke-linecap="round" stroke-linejoin="round"/>
<path d="M495.97 237.613C495.97 237.613 498.499 245.976 499.465 250.647C500.431 255.318 497.914 264.266 494.611 270.502C491.307 276.726 487.622 283.344 489.363 288.983C491.116 294.622 491.891 296.772 491.891 296.772C491.891 296.772 490.532 310.594 490.722 312.923C490.913 315.253 500.824 317.594 510.736 316.615C520.647 315.647 528.029 313.7 528.805 311.944C529.58 310.188 528.805 300.463 530.164 295.398C531.524 290.333 531.918 266.787 528.805 261.733C525.692 256.668 518.512 248.7 518.512 248.7L512.68 233.325L495.97 237.602V237.613Z" fill="#92E3A9" stroke="#263238" stroke-linecap="round" stroke-linejoin="round"/>
<path d="M521.433 252.069C519.096 251.567 514.909 251.113 510.544 252.785C506.739 254.243 501.849 258.018 498.379 260.957C499.488 257.002 500.001 253.18 499.476 250.635C498.51 245.964 495.981 237.602 495.981 237.602L512.691 233.325L518.523 248.7C518.523 248.7 519.775 250.085 521.445 252.069H521.433Z" fill="white" stroke="#263238" stroke-linecap="round" stroke-linejoin="round"/>
<path d="M488.265 205.776C488.265 205.776 485.939 212.012 485.104 214.665C484.269 217.329 483.053 219.945 481.478 220.196C479.892 220.435 478.413 221.677 479.403 223.72C480.393 225.763 483.089 228.164 483.089 228.164C483.089 228.164 484.496 238.259 485.557 239.537C486.607 240.803 491.497 240.672 494.491 239.967C497.484 239.262 503.233 238.235 503.233 238.235C503.233 238.235 505.105 217.89 503.937 213.673C502.768 209.456 497.675 203.327 496.172 202.599C494.681 201.87 488.265 205.776 488.265 205.776Z" fill="white" stroke="#263238" stroke-linecap="round" stroke-linejoin="round"/>
<path d="M487.096 218.368C487.001 219.443 487.311 220.339 487.788 220.387C488.265 220.435 488.742 219.598 488.838 218.535C488.933 217.46 488.623 216.564 488.146 216.516C487.669 216.468 487.192 217.305 487.096 218.368Z" fill="#263238"/>
<path d="M492.034 215.692C492.034 215.692 489.219 212.311 487.168 213.482" stroke="#263238" stroke-linecap="round" stroke-linejoin="round"/>
<path d="M490.483 228.26C490.483 228.26 488.181 230.004 485.45 229.944" stroke="#263238" stroke-linecap="round" stroke-linejoin="round"/>
<path d="M495.159 205.036C495.159 205.036 500.443 215.489 500.908 216.707C501.385 217.926 501.743 239.453 500.502 244.423C499.262 249.393 496.34 251.459 496.34 251.459C496.34 251.459 505.309 253.657 517.045 253.371C528.781 253.084 534.112 250.253 534.112 250.253C534.112 250.253 532.12 235.798 531.858 221.713C531.596 207.616 525.31 197.462 517.486 195.562C509.662 193.663 500.145 195.323 500.145 195.323C500.145 195.323 494.67 189.147 487.8 193.794C480.931 198.441 483.447 205.119 486.572 207.162C489.697 209.205 494.038 210.782 494.038 210.782L495.159 205.024V205.036Z" fill="#263238" stroke="#263238" stroke-linecap="round" stroke-linejoin="round"/>
<path d="M475.527 276.547C475.527 276.547 505.881 257.851 509.96 257.265C514.039 256.68 520.253 263.489 518.309 270.884C516.365 278.279 475.527 293.092 474.168 293.284C472.808 293.475 439.711 261.196 439.711 261.196C439.711 261.196 434.463 259.643 432.138 258.472C430.182 257.492 422.382 255.019 419.889 254.231C419.459 254.099 419.209 253.645 419.316 253.203C419.424 252.773 419.841 252.487 420.282 252.558L426.687 253.598L419.006 248.759C418.601 248.509 418.398 248.031 418.481 247.565C418.613 246.848 419.352 246.43 420.032 246.669L427.868 249.512L419.185 242.416C418.708 242.022 418.589 241.341 418.899 240.803C419.245 240.23 419.972 240.027 420.557 240.337L429.812 245.235L424.218 239.31C423.693 238.76 423.825 237.864 424.469 237.47C424.874 237.219 425.399 237.243 425.781 237.53L436.61 245.438L435.382 241.735C435.107 240.911 435.608 240.027 436.467 239.835C437.123 239.692 437.791 240.015 438.089 240.624C438.864 242.225 440.331 245.235 440.892 246.215C441.667 247.577 442.836 250.695 442.836 251.854C442.836 253.012 443.027 255.748 443.027 255.748L475.539 276.547H475.527Z" fill="white" stroke="#263238" stroke-linecap="round" stroke-linejoin="round"/>
<path d="M458.317 279.067L458.699 278.434L464.794 270.012L475.528 276.571C475.528 276.571 505.881 257.874 509.96 257.289C514.039 256.704 520.253 263.513 518.309 270.908C516.365 278.303 475.528 293.116 474.168 293.307C473.512 293.403 468.598 288.481 458.317 279.079V279.067Z" fill="#92E3A9" stroke="#263238" stroke-linecap="round" stroke-linejoin="round"/>
<path d="M468.526 272.21L459.987 282.568L455.085 278.685L463.613 268.065L468.526 272.21Z" fill="#92E3A9" stroke="#263238" stroke-linecap="round" stroke-linejoin="round"/>
<path d="M355.83 199.624V180.749H361.805C362.938 180.749 363.857 180.964 364.572 181.394C365.288 181.824 365.813 182.433 366.171 183.246C366.517 184.058 366.695 185.038 366.695 186.184C366.695 187.534 366.469 188.598 366.004 189.35C365.55 190.115 364.918 190.652 364.131 190.975C363.344 191.297 362.438 191.453 361.412 191.453H359.671V199.636H355.83V199.624ZM359.671 188.741H361.018C361.579 188.741 362.008 188.657 362.306 188.478C362.605 188.299 362.819 188.012 362.927 187.63C363.034 187.248 363.094 186.746 363.094 186.137C363.094 185.563 363.046 185.085 362.962 184.691C362.879 184.297 362.688 183.998 362.39 183.783C362.092 183.568 361.627 183.461 360.994 183.461H359.671V188.753V188.741Z" fill="#92E3A9"/>
<path d="M368.532 199.624V180.749H373.422C374.698 180.749 375.783 180.892 376.69 181.179C377.596 181.466 378.3 181.979 378.777 182.708C379.266 183.437 379.504 184.452 379.504 185.742C379.504 186.519 379.433 187.212 379.302 187.809C379.17 188.406 378.932 188.932 378.598 189.374C378.264 189.816 377.799 190.174 377.191 190.437L379.791 199.636H375.855L373.696 191.082H372.348V199.636H368.508L368.532 199.624ZM372.372 188.789H373.493C374.113 188.789 374.602 188.693 374.96 188.49C375.318 188.287 375.568 187.976 375.712 187.57C375.855 187.164 375.938 186.65 375.938 186.041C375.938 185.169 375.783 184.512 375.461 184.046C375.139 183.58 374.555 183.353 373.684 183.353H372.384V188.777L372.372 188.789Z" fill="#92E3A9"/>
<path d="M387.21 199.887C385.826 199.887 384.741 199.636 383.93 199.146C383.119 198.644 382.546 197.94 382.201 197.02C381.855 196.1 381.676 194.989 381.676 193.699V186.662C381.676 185.372 381.855 184.273 382.201 183.353C382.546 182.433 383.131 181.74 383.93 181.25C384.741 180.773 385.826 180.534 387.21 180.534C388.593 180.534 389.714 180.773 390.525 181.262C391.337 181.752 391.921 182.445 392.267 183.365C392.613 184.273 392.792 185.372 392.792 186.662V193.699C392.792 194.989 392.613 196.1 392.267 197.02C391.921 197.94 391.337 198.656 390.525 199.146C389.714 199.648 388.605 199.887 387.21 199.887ZM387.21 197.115C387.711 197.115 388.069 197.008 388.307 196.781C388.534 196.554 388.689 196.255 388.772 195.873C388.844 195.491 388.891 195.084 388.891 194.654V185.73C388.891 185.3 388.856 184.894 388.772 184.524C388.689 184.153 388.534 183.855 388.307 183.628C388.08 183.401 387.711 183.293 387.21 183.293C386.745 183.293 386.399 183.401 386.16 183.628C385.922 183.855 385.767 184.153 385.695 184.524C385.624 184.894 385.576 185.3 385.576 185.73V194.654C385.576 195.084 385.612 195.503 385.683 195.873C385.755 196.255 385.91 196.554 386.136 196.781C386.375 197.008 386.721 197.115 387.21 197.115Z" fill="#92E3A9"/>
<path d="M395.344 199.624V180.749H399.948C401.546 180.749 402.786 180.952 403.681 181.37C404.575 181.776 405.207 182.421 405.577 183.305C405.947 184.177 406.138 185.3 406.138 186.674V193.543C406.138 194.941 405.947 196.088 405.577 196.996C405.207 197.904 404.575 198.561 403.704 198.991C402.834 199.421 401.605 199.636 400.043 199.636H395.344V199.624ZM399.184 196.948H399.995C400.711 196.948 401.212 196.841 401.522 196.614C401.82 196.387 402.011 196.052 402.094 195.61C402.166 195.168 402.214 194.619 402.214 193.973V186.196C402.214 185.539 402.166 185.014 402.059 184.619C401.963 184.225 401.76 183.927 401.45 183.747C401.152 183.556 400.651 183.473 399.971 183.473H399.184V196.96V196.948Z" fill="#92E3A9"/>
<path d="M413.985 199.887C412.554 199.887 411.445 199.648 410.657 199.158C409.87 198.668 409.31 197.964 409 197.044C408.678 196.124 408.522 195.001 408.522 193.675V180.773H412.315V194.212C412.315 194.678 412.351 195.132 412.423 195.586C412.494 196.04 412.649 196.399 412.888 196.685C413.126 196.96 413.496 197.103 413.997 197.103C414.498 197.103 414.879 196.96 415.13 196.685C415.368 196.411 415.523 196.04 415.583 195.586C415.643 195.132 415.679 194.678 415.679 194.212V180.773H419.471V193.675C419.471 195.001 419.316 196.112 418.994 197.044C418.672 197.964 418.124 198.68 417.336 199.158C416.549 199.648 415.44 199.887 414.009 199.887H413.985Z" fill="#92E3A9"/>
<path d="M427.355 199.887C425.959 199.887 424.85 199.624 424.039 199.098C423.228 198.573 422.656 197.832 422.334 196.9C422.012 195.956 421.845 194.869 421.845 193.627V186.841C421.845 185.539 422.012 184.416 422.334 183.473C422.656 182.529 423.228 181.812 424.039 181.298C424.85 180.785 425.959 180.534 427.355 180.534C428.75 180.534 429.764 180.761 430.527 181.215C431.291 181.669 431.839 182.302 432.161 183.126C432.483 183.95 432.639 184.906 432.639 185.993V187.582H428.917V185.814C428.917 185.384 428.893 184.966 428.846 184.595C428.798 184.213 428.667 183.903 428.464 183.664C428.261 183.425 427.892 183.305 427.379 183.305C426.866 183.305 426.496 183.425 426.258 183.676C426.019 183.926 425.876 184.249 425.816 184.643C425.757 185.037 425.721 185.48 425.721 185.957V194.535C425.721 195.06 425.769 195.526 425.852 195.921C425.936 196.315 426.103 196.625 426.341 196.829C426.58 197.044 426.926 197.139 427.379 197.139C427.88 197.139 428.226 197.02 428.44 196.781C428.655 196.542 428.786 196.219 428.834 195.813C428.893 195.407 428.917 194.977 428.917 194.535V192.695H432.639V194.26C432.639 195.359 432.483 196.339 432.173 197.187C431.863 198.035 431.327 198.704 430.563 199.194C429.8 199.684 428.738 199.923 427.355 199.923V199.887Z" fill="#92E3A9"/>
<path d="M436.754 199.624V183.616H433.844V180.749H443.469V183.616H440.606V199.624H436.742H436.754Z" fill="#92E3A9"/>
<path d="M371.323 231.318C370.965 231.151 370.559 230.888 370.094 230.529C369.629 230.171 369.176 229.753 368.723 229.287C368.269 228.809 367.888 228.331 367.578 227.829C367.518 227.841 367.446 227.853 367.375 227.853H367.148C365.765 227.853 364.679 227.603 363.868 227.113C363.057 226.611 362.485 225.906 362.139 224.986C361.793 224.066 361.614 222.955 361.614 221.665V214.629C361.614 213.339 361.793 212.239 362.139 211.32C362.485 210.4 363.069 209.707 363.868 209.217C364.679 208.739 365.765 208.5 367.148 208.5C368.532 208.5 369.653 208.739 370.464 209.229C371.275 209.719 371.859 210.412 372.205 211.332C372.551 212.239 372.73 213.339 372.73 214.629V221.665C372.73 222.561 372.647 223.373 372.491 224.102C372.325 224.831 372.062 225.452 371.692 225.978C371.323 226.503 370.822 226.922 370.202 227.232C370.404 227.447 370.607 227.662 370.834 227.889C371.048 228.104 371.263 228.307 371.49 228.498C371.704 228.69 371.919 228.845 372.122 228.964L371.335 231.342L371.323 231.318ZM367.16 225.07C367.661 225.07 368.019 224.962 368.257 224.735C368.484 224.508 368.639 224.21 368.723 223.827C368.794 223.445 368.842 223.039 368.842 222.609V213.685C368.842 213.255 368.806 212.849 368.723 212.478C368.639 212.108 368.484 211.809 368.257 211.582C368.031 211.355 367.661 211.248 367.16 211.248C366.659 211.248 366.325 211.355 366.087 211.582C365.86 211.809 365.705 212.108 365.634 212.478C365.562 212.849 365.526 213.255 365.526 213.685V222.609C365.526 223.039 365.562 223.457 365.634 223.827C365.705 224.21 365.86 224.508 366.087 224.735C366.325 224.962 366.671 225.07 367.16 225.07Z" fill="#92E3A9"/>
<path d="M380.602 227.841C379.171 227.841 378.062 227.602 377.275 227.113C376.487 226.623 375.927 225.918 375.617 224.998C375.295 224.078 375.14 222.955 375.14 221.629V208.727H378.932V222.167C378.932 222.633 378.968 223.087 379.04 223.541C379.111 223.995 379.266 224.353 379.505 224.64C379.743 224.914 380.113 225.058 380.614 225.058C381.115 225.058 381.497 224.914 381.747 224.64C381.986 224.365 382.141 223.995 382.2 223.541C382.26 223.087 382.296 222.633 382.296 222.167V208.727H386.088V221.629C386.088 222.955 385.933 224.066 385.611 224.998C385.289 225.918 384.741 226.635 383.954 227.113C383.166 227.602 382.057 227.841 380.626 227.841H380.602Z" fill="#92E3A9"/>
<path d="M387.675 227.591L391.324 208.715H395.582L399.208 227.591H395.654L394.974 223.445H391.992L391.277 227.591H387.675ZM392.35 221.092H394.604L393.459 213.47L392.338 221.092H392.35Z" fill="#92E3A9"/>
<path d="M400.973 227.591V208.715H404.813V224.974H409.238V227.579H400.985L400.973 227.591Z" fill="#92E3A9"/>
<path d="M410.956 227.591V208.715H414.773V227.591H410.956Z" fill="#92E3A9"/>
<path d="M419.424 227.591V211.582H416.514V208.715H426.139V211.582H423.276V227.591H419.412H419.424Z" fill="#92E3A9"/>
<path d="M430.313 227.591V220.112L426.64 208.715H430.242L432.269 215.358L434.154 208.715H437.648L434.022 220.112V227.591H430.325H430.313Z" fill="#92E3A9"/>
<path d="M371.502 162.602L372.778 166.557H376.929L373.577 168.994L374.853 172.948L371.502 170.499L368.15 172.948L369.427 168.994L366.075 166.557H370.226L371.502 162.602Z" fill="#92E3A9"/>
<path d="M386.017 162.602L387.293 166.557H391.443L388.08 168.994L389.368 172.948L386.017 170.499L382.665 172.948L383.941 168.994L380.59 166.557H384.728L386.017 162.602Z" fill="#92E3A9"/>
<path d="M400.519 162.602L401.808 166.557H405.946L402.595 168.994L403.871 172.948L400.519 170.499L397.168 172.948L398.456 168.994L395.093 166.557H399.243L400.519 162.602Z" fill="#92E3A9"/>
<path d="M415.035 162.602L416.311 166.557H420.462L417.11 168.994L418.387 172.948L415.035 170.499L411.684 172.948L412.96 168.994L409.608 166.557H413.759L415.035 162.602Z" fill="#92E3A9"/>
<path d="M429.538 162.602L430.826 166.557H434.965L431.613 168.994L432.901 172.948L429.538 170.499L426.186 172.948L427.474 168.994L424.123 166.557H428.262L429.538 162.602Z" fill="#92E3A9"/>
</svg>
